<svg width="500" height="192" viewBox="0 0 500 192" fill="none" xmlns="http://www.w3.org/2000/svg">
<path d="M87.1636 134.916L98.9872 69.9126H123.626L101.748 173.576H75.9772L62.1712 114.482L48.6484 173.576H22.948L1 69.9126H25.7092L37.5328 134.916L51.6928 69.9126H72.7912L87.1636 134.916Z" fill="#1D1D1F"/>
<path d="M150.872 173.576H126.942V96.5405H150.872V173.576ZM125.526 76.6764C125.526 73.2589 126.753 70.4585 129.207 68.2751C131.662 66.0917 134.848 65 138.765 65C142.683 65 145.869 66.0917 148.323 68.2751C150.778 70.4585 152.005 73.2589 152.005 76.6764C152.005 80.0939 150.778 82.8943 148.323 85.0777C145.869 87.2611 142.683 88.3528 138.765 88.3528C134.848 88.3528 131.662 87.2611 129.207 85.0777C126.753 82.8943 125.526 80.0939 125.526 76.6764Z" fill="#1D1D1F"/>
<path d="M181.022 96.5405L181.8 105.583C187.087 98.6052 194.379 95.1165 203.678 95.1165C211.654 95.1165 217.602 97.5135 221.519 102.307C225.484 107.101 227.537 114.316 227.679 123.951V173.576H203.748V124.948C203.748 121.056 202.97 118.208 201.412 116.405C199.854 114.553 197.022 113.628 192.916 113.628C188.243 113.628 184.774 115.479 182.508 119.181V173.576H158.649V96.5405H181.022Z" fill="#1D1D1F"/>
<path d="M256.342 96.5405L257.12 105.583C262.407 98.6052 269.699 95.1165 278.998 95.1165C286.974 95.1165 292.922 97.5135 296.839 102.307C300.804 107.101 302.857 114.316 302.999 123.951V173.576H279.068V124.948C279.068 121.056 278.29 118.208 276.732 116.405C275.174 114.553 272.342 113.628 268.236 113.628C263.563 113.628 260.094 115.479 257.828 119.181V173.576H233.969V96.5405H256.342Z" fill="#1D1D1F"/>
<path d="M346.813 175C335.06 175 325.549 171.488 318.28 164.463C311.011 157.391 307.377 148.206 307.377 136.909V134.916C307.377 127.037 308.817 120.083 311.696 114.055C314.622 108.027 318.87 103.375 324.44 100.1C330.009 96.7778 336.617 95.1165 344.264 95.1165C355.025 95.1165 363.521 98.4865 369.752 105.227C375.982 111.919 379.097 121.27 379.097 133.278V142.605H331.661C332.511 146.924 334.375 150.318 337.255 152.786C340.134 155.255 343.863 156.489 348.441 156.489C355.993 156.489 361.893 153.831 366.141 148.515L377.044 161.472C374.071 165.602 369.846 168.901 364.371 171.369C358.943 173.79 353.09 175 346.813 175ZM344.122 113.628C337.137 113.628 332.983 118.279 331.661 127.583H355.733V125.731C355.828 121.887 354.86 118.92 352.831 116.832C350.801 114.696 347.898 113.628 344.122 113.628Z" fill="#1D1D1F"/>
<path d="M428.575 118.256L420.716 117.686C413.212 117.686 408.397 120.059 406.273 124.806V173.576H382.414V96.5405H404.786L405.565 106.437C409.577 98.89 415.17 95.1165 422.345 95.1165C424.894 95.1165 427.112 95.4013 429 95.9709L428.575 118.256Z" fill="#1D1D1F"/>
<path d="M477 60C477 72.1503 467.15 82 455 82C442.85 82 433 72.1503 433 60C433 47.8497 442.85 38 455 38C467.15 38 477 47.8497 477 60Z" fill="#FF416C"/>
<path d="M500 38C500 50.1503 490.15 60 478 60C465.85 60 456 50.1503 456 38C456 25.8497 465.85 16 478 16C490.15 16 500 25.8497 500 38Z" fill="#FF4B2B"/>
</svg>
