<?xml version="1.0" encoding="UTF-8"?>
<svg width="732px" height="664px" viewBox="0 0 732 664" version="1.1" xmlns="http://www.w3.org/2000/svg" xmlns:xlink="http://www.w3.org/1999/xlink">
    <title>Group</title>
    <g id="Page-1" stroke="none" stroke-width="1" fill="none" fill-rule="evenodd">
        <g id="Artboard" transform="translate(-124.000000, -82.000000)">
            <g id="Group" transform="translate(129.031810, 86.506958)">
                <path d="M204.46819,445.993042 C199.06975,437.880193 194.903083,432.180228 191.96819,428.893148 C189.033297,425.606068 186.846372,423.161913 185.407413,421.560683 L189.716186,422.628063 C189.191573,422.591424 189.191573,422.235631 189.716186,421.560683 C190.115256,421.047255 190.787213,420.34461 191.732056,419.452749 C192.299186,418.917413 193.153678,418.825923 193.821293,419.22905 C194.543874,419.665368 195.095694,420.335471 195.385317,421.128324" id="Line" stroke="#111111" stroke-width="4" fill="#111111" fill-rule="nonzero" stroke-linecap="square"></path>
                <path d="M277.183763,312.604464 C295.401479,296.060282 315.314063,295.304154 336.921515,310.336078" id="Path" stroke="#111111" stroke-width="5"></path>
                <path d="M308.96819,333.493042 C322.223024,333.493042 331.221662,326.745799 333.018631,316.933433 C333.085763,316.566855 333.851499,310.841334 332.96819,309.296519 C329.464235,303.168469 319.125301,300.493042 308.96819,300.493042 C300.561576,300.493042 289.254767,302.723373 284.96819,307.221972 C282.496057,309.816381 283.869346,310.44085 284.96819,316.993042 C286.486336,326.045443 295.713356,333.493042 308.96819,333.493042 Z" id="Oval" fill="#111111" fill-rule="nonzero"></path>
                <path d="M482.607068,306.283177 C494.848566,306.283177 503.159254,299.944858 504.818844,290.727181 C504.880845,290.382819 505.58804,285.0043 504.77226,283.55311 C501.536184,277.796457 491.987665,275.283177 482.607068,275.283177 C474.843143,275.283177 464.400743,277.378336 460.441877,281.604293 C460.374071,281.676672 459.749785,280.238628 459.688145,280.307938 C457.674234,282.572428 459.457178,284.810882 460.441877,290.783177 C461.84396,299.286947 470.365571,306.283177 482.607068,306.283177 Z" id="Oval-Copy" fill="#111111" fill-rule="nonzero" transform="translate(481.965988, 290.783177) rotate(-13.000000) translate(-481.965988, -290.783177) "></path>
                <path d="M453.241308,288.028832 C458.918002,281.757052 465.48211,277.445267 472.933631,275.093478 C480.385152,272.741688 492.986293,274.905703 510.737054,281.585521" id="Path-4" stroke="#111111" stroke-width="6"></path>
                <path d="M377.186837,443.265812 C390.736092,445.873386 401.948181,447.177173 410.823103,447.177173 C419.698026,447.177173 430.988572,445.873386 444.694741,443.265812 C454.279696,440.087461 461.470379,437.29973 466.266788,434.902618 C471.063197,432.505507 477.637287,428.413988 485.989059,422.628063" id="Path-10" stroke="#111111" stroke-width="3"></path>
                <path d="M394.743597,446.686274 C395.402195,445.971089 395.901973,445.442528 396.242931,445.10059 C407.618618,433.692204 416.255735,426.544793 423.111125,422.628063 C430.274725,418.535242 434.96582,418.535242 437.184409,422.628063" id="Path-11" stroke="#111111" stroke-width="3"></path>
                <path d="M436.710818,423.162082 L437.07548,422.628063 C440.816005,423.626153 443.967818,423.626153 446.530918,422.628063 C448.241746,421.961855 450.655757,420.97845 453.772951,419.67785 C456.951475,418.35166 460.608125,418.955717 463.19126,421.233701 L473.348274,430.190842 L473.348274,430.190842" id="Path-12" stroke="#111111" stroke-width="3"></path>
                <path d="M437.047882,423.682764 C436.599149,423.620056 436.248985,423.262897 436.195163,422.813012 L436.173037,422.628063 L436.173037,422.628063 L437.047882,423.682764 Z" id="Path-13" stroke="#111111"></path>
                <path d="M390.586383,469.911625 C405.623152,474.760962 416.867583,477.767059 424.319675,478.929914 C431.771767,480.092769 439.791731,480.092769 448.379567,478.929914" id="Path-14" stroke="#111111" stroke-width="3"></path>
                <path d="M448.379567,478.929914 C453.737676,477.58507 458.530014,474.578973 462.756581,469.911625 C466.983147,465.244277 471.775485,457.666126 477.133595,447.177173" id="Path-15" stroke="#111111" stroke-width="3"></path>
                <path d="M467.907575,425.051518 C470.305063,427.244344 472.236314,428.340757 473.701327,428.340757 C475.166341,428.340757 476.42248,428.049882 477.469746,427.468134 C476.338345,427.490617 475.660222,427.490617 475.435378,427.468134 C473.308247,427.255435 472.760631,426.931217 471.838251,426.696137 C470.769623,426.423785 469.459398,425.875578 467.907575,425.051518 Z" id="Path-16" stroke="#111111" stroke-width="3"></path>
                <path d="M390.449268,444.723213 C392.62516,444.765488 394.056603,444.68474 394.743597,444.480969 C395.430591,444.277198 397.024986,443.004804 399.526782,440.663787 C397.786471,442.130087 396.890835,442.882909 396.839874,442.922253 C396.106428,443.4885 395.756668,443.685432 395.072951,444.002807 C394.53992,444.250235 393.830918,444.723213 392.082807,444.723213 C391.876303,444.723213 391.33179,444.723213 390.449268,444.723213 Z" id="Path-17" stroke="#111111"></path>
                <path d="M191.622119,422.628063 C196.187131,424.594384 198.731117,425.950408 199.254079,426.696137 C240.89347,486.072796 272.439256,523.242625 308.486635,539.584393 C334.213575,551.247479 378.244384,555.316329 427.758922,556.014143 C438.196745,556.161245 456.474787,561.128823 473.348274,556.014143 C485.095471,552.453341 495.041201,546.976758 503.185464,539.584393" id="Path-18" stroke="#111111" stroke-width="12"></path>
                <path d="M281.652314,523.223451 C288.252901,530.835314 291.59196,534.745626 291.66949,534.954388 C299.152359,555.103041 293.996142,570.464521 291.66949,582.229548 C289.306679,594.177424 283.540291,605.219721 274.370328,615.35644 C265.866449,619.610283 258.730922,621.342691 252.963746,620.553664 C248.582628,619.954269 243.00466,618.150315 236.229843,615.141802 C230.807643,612.73395 224.874401,611.703481 218.957843,612.14205 C212.78762,612.599422 207.775862,613.670885 203.922569,615.35644 C199.771326,617.172328 194.396017,620.424337 187.796641,625.112467 C182.161173,629.115846 174.971756,630.237666 168.384528,628.141487 L157.72728,624.750151 C151.41191,622.740483 147.92145,615.991706 149.931119,609.676337 C150.103557,609.13445 150.314297,608.605505 150.561744,608.093503 L151.966277,605.187322 C156.492038,595.822875 155.55357,584.736089 149.518131,576.26562 C141.044195,564.372835 134.8061,554.816778 130.803846,547.597448 C125.956438,538.853615 123.171508,531.434669 122.449056,525.34061 L122.449056,525.34061 C122.263049,523.771601 122.031175,522.208369 121.75373,520.652923 C120.087128,511.309415 120.895822,501.249847 124.179813,490.47422 C127.767107,478.703375 129.975118,469.532316 130.803846,462.961043 C141.228982,482.562901 149.3094,496.675538 155.045098,505.298953 C158.493562,510.483595 163.905243,517.657654 172.437873,520.9275 C175.078967,521.939611 179.547666,522.61825 185.843971,522.963418 L185.843971,522.963418 C191.933123,523.29723 197.964779,521.633967 203.02223,518.226419 C207.794105,515.011282 211.071357,512.183729 212.853984,509.743761 C213.033439,509.498133 217.418972,505.298953 218.319236,500.893772 C219.219501,496.488591 220.727283,486.23513 212.853984,462.961043 C210.678022,456.52873 204.708547,444.212262 194.945559,426.011639" id="Path-19" stroke="#111111" stroke-width="7" fill="#111111" fill-rule="nonzero"></path>
                <path d="M180.810682,521.670339 C175.857018,521.311072 170.963395,519.057933 166.129811,514.910923 C163.914761,513.010505 161.375347,510.322759 158.511567,506.847686 L158.511568,506.847686 C150.917728,497.632889 146.528984,486.197071 146.008323,474.267788 C145.816717,469.877748 145.720914,466.139667 145.720914,463.053544 C145.720914,456.554843 146.570555,449.091591 148.269837,440.663787 C151.271146,461.839939 155.608078,476.706125 161.280633,485.262344 C165.776178,492.043214 172.459703,496.89594 181.33121,499.82052 L181.33121,499.820522 C186.037617,501.372036 191.197316,500.6552 195.302543,497.879488 C200.096389,494.638172 202.908339,491.459301 203.738392,488.342875 C204.873907,484.079601 203.026286,475.865419 198.195532,463.700328 C198.138781,463.557416 198.05273,463.341821 197.937376,463.053544 L197.937376,463.053544 C195.922243,458.020668 193.817157,453.649756 191.622119,449.940807 C190.208695,447.552549 185.323501,441.092743 180.810682,435.165665 C179.146976,432.980576 178.093134,431.671733 177.649156,431.239134" id="Path-20" stroke="#111111" stroke-width="5"></path>
                <path d="M201.628463,482.163479 L172.61562,423.665188 C173.436128,424.034092 174.194834,424.462214 174.891738,424.949555 C175.244173,425.196011 175.089631,425.129054 175.955164,426.011639 C176.820697,426.894224 178.849857,429.933511 181.310366,433.644763 C181.552077,434.009344 179.946743,434.192174 180.222251,434.563377 C180.3283,434.706261 182.830978,442.10156 182.958005,442.277686 C185.153398,445.321656 188.597126,444.324031 189.803551,445.993042 C190.635104,447.143441 189.169725,445.449103 185.407413,440.910028 L201.628463,482.163479 Z" id="Path-21" stroke="#111111" stroke-width="2" fill="#111111" fill-rule="nonzero"></path>
                <path d="M174.891738,431.239134 C174.232702,431.621986 172.106317,431.612706 168.512582,431.211292 C164.918848,430.809879 159.398117,427.164643 151.95039,420.275584 C146.226357,413.254659 143.36434,407.382152 143.36434,402.658063 C143.36434,399.874501 143.36434,392.787095 146.931771,387.674047 C147.815573,386.407331 150.838726,381.099067 156.249061,376.095232 C157.466542,374.969226 159.591934,373.791651 162.625238,372.562507 C167.269337,371.978132 170.702518,371.978132 172.924782,372.562507 C175.147046,373.146882 177.9793,374.324457 181.421545,376.095232 C188.183067,376.906078 192.635797,375.728503 194.779734,372.562507 C196.923672,369.396512 198.127075,362.221564 198.389942,351.037663 C197.771603,347.405188 197.771603,343.861146 198.389942,340.405539 C199.008281,336.949931 200.419856,333.246994 202.624668,329.296727 C204.3519,324.514487 205.400461,320.413259 205.77035,316.993042 C205.964186,315.200716 206.056445,312.811323 206.047125,309.824865 C206.025784,302.985731 206.706104,296.162448 208.077402,289.462168 C210.904399,275.649211 212.673369,264.181119 213.384311,255.057892 C214.272171,243.664352 214.272171,226.146063 213.384311,202.503024 C213.372224,193.742717 211.916755,186.750775 209.017902,181.527199 C206.119048,176.303624 200.007949,169.661018 190.684602,161.599382 C184.352047,154.576319 179.087759,149.776522 174.891738,147.199989 C170.695718,144.623456 164.481492,142.374963 156.249061,140.454511 C176.512301,155.559814 189.355858,169.25071 194.779734,181.527199 C200.20361,193.803689 203.867149,207.014873 205.77035,221.160752 C205.916192,229.542791 205.916192,235.365441 205.77035,238.628702 C205.677752,240.700613 205.77035,247.555193 202.624668,249.147496 C193.036392,254.000956 187.467207,297.622676 181.421545,312.181094 C177.33366,322.025034 173.351514,332.216075 166.56101,340.405539 C163.061183,344.626389 156.518103,350.071792 146.931771,356.741746 C131.065408,366.467163 120.963319,373.845129 116.625505,378.875644 C112.287691,383.906158 110.567753,390.238064 111.465691,397.871362 C117.161227,418.852103 121.920264,434.233819 125.742801,444.016509 C129.565338,453.799199 135.439184,465.629304 143.36434,479.506825 L148.269837,440.663787 C151.82508,462.116266 156.615951,477.195166 162.64245,485.900487 C168.66895,494.605809 177.118467,498.652741 187.990999,498.041283 C191.695953,497.800528 194.707357,496.995152 197.025211,495.625157 C199.343065,494.255161 201.688849,491.894106 204.062563,488.541992 L174.891738,431.239134 Z" id="Path-22" stroke="#111111" stroke-width="4" fill="#111111" fill-rule="nonzero"></path>
                <path d="M184.398478,404.804097 C182.18687,408.214639 180.453875,410.326183 179.199492,411.138729 C177.94511,411.951275 176.117182,412.573767 173.715709,413.006203 L173.715709,413.006203 C171.143055,412.888305 169.382322,412.698511 168.433509,412.436822 C164.916051,411.466683 163.017258,409.118956 161.882084,407.362795 C160.960191,405.936587 160.279693,403.356592 160.100496,400.551852 C160.013338,399.187674 160.377034,396.929366 161.191584,393.776927 C161.987697,391.047011 163.179453,388.98937 164.766851,387.604005 C166.354249,386.218639 169.337201,384.632899 173.715709,382.846783 C169.547448,387.117737 167.101324,390.146374 166.377338,391.932695 C164.998957,395.333631 165.725847,398.943566 166.377338,400.551852 C167.113191,402.368396 168.695744,406.365834 172.61562,407.362795 C174.138873,407.750211 177.213103,407.328539 181.83831,406.097779 L184.398478,404.804097 Z" id="Path-23" stroke="#111111" fill="#111111" fill-rule="nonzero"></path>
                <path d="M480.636442,615.501702 C476.263374,600.128592 475.030902,587.339319 476.939025,577.133885 C478.960511,566.322133 486.52133,553.895512 499.621482,539.854024 L499.621482,539.854024 C508.912391,529.895499 516.07113,518.144058 520.658694,505.320351 C524.048521,495.844703 527.025275,485.6902 529.588958,474.85684 C532.354641,463.169893 540.375879,468.451217 553.652674,490.700814 L553.652675,490.700813 C556.890489,496.126828 558.684791,502.291625 558.86458,508.607695 C559.180902,519.720223 559.072268,526.44592 558.538677,528.784785 C557.919548,531.498584 554.721262,537.103686 548.943819,545.600092 C548.658515,546.019665 548.230447,546.644242 547.659615,547.473822 C547.534481,547.655677 547.408745,547.837118 547.28241,548.01814 L546.141924,549.652308 C545.274033,550.895884 544.088733,551.884151 542.709364,552.514274 L521.90311,562.018978 C517.085193,564.219896 514.424847,569.455732 515.487891,574.644788 C516.65151,580.324776 515.528619,586.234504 512.362827,591.091873 L495.033358,617.680993 C492.620895,621.382508 487.664537,622.42749 483.963023,620.015027 C482.346014,618.96114 481.164539,617.35818 480.636442,615.501702 Z" id="Path-24" stroke="#111111" stroke-width="10" fill="#111111" fill-rule="nonzero"></path>
                <path d="M535.56561,445.178118 L536.535153,438.792769 C536.620841,438.228427 536.786623,437.679201 537.027484,437.161697 L538.078923,434.902618 L538.078923,434.902618 C538.12118,435.465014 538.153703,435.884906 538.176491,436.162293 C539.281191,449.608734 542.120259,459.07533 546.693694,464.562083 C553.766124,473.046881 558.080372,475.14986 565.820833,476.65434 C570.710584,477.604739 581.069086,477.050746 584.58405,474.85684 C594.128142,468.899785 599.451697,464.566439 603.447393,455.219466 C605.073391,451.415836 608.482625,436.581544 605.965009,419.558447 C603.447393,402.53535 587.744852,389.760113 587.474253,389.493042 C582.106911,384.195665 576.113734,380.117713 569.494723,377.259186 L619.935064,383.415201 L621.286361,383.58012 C632.589684,384.044084 639.561139,387.217419 642.200726,393.100124 C644.826321,398.951645 644.716035,411.086386 641.869869,429.504347 L641.869869,429.504346 C641.847806,429.647113 641.826054,429.789928 641.804611,429.932789 C641.67529,430.794365 641.5219,431.378592 641.344441,431.685471 C638.076252,437.337141 635.588632,441.0083 633.881583,442.698948 C628.219077,448.307049 622.908987,449.417468 619.935064,453.230801 C616.11263,458.132144 612.124556,464.61103 607.970843,472.66746 C606.593864,475.338212 604.659768,477.68236 602.299192,479.541573 L596.818586,483.858151 C593.131572,486.762077 588.773761,488.692635 584.145709,489.472372 C579.557962,490.245318 576.064045,490.948224 573.663956,491.58109 C570.1722,492.501812 565.716593,494.138915 560.297135,496.492401 C545.41794,489.991343 535.644443,484.137181 530.976646,478.929914 C528.406796,476.063061 528.030257,473.321095 528.6215,468.819775 C528.639155,468.685363 527.63072,471.541942 527.656218,471.38851 C527.896889,469.970707 529.470159,464.825363 532.37652,455.952479 C532.537139,455.462124 532.677715,454.965429 532.7979,454.463631 L536.664344,438.320411 L536.664344,438.320411" id="Path-25" stroke="#111111" stroke-width="4" fill="#111111" fill-rule="nonzero"></path>
                <path d="M547.87396,393.46202 C568.31483,395.013858 579.979543,398.532063 582.8681,404.016636 C585.131404,408.314026 592.630258,421.995513 592.372787,433.12236 C592.13736,443.296581 584.305834,451.095034 582.8681,452.554357 C582.8681,452.554357 582.8681,452.554357 582.8681,452.554357 C578.185868,457.306894 571.202546,458.971678 564.879792,456.842666 C558.791833,454.79271 554.286519,452.254104 551.363852,449.226844 C548.082188,445.827741 544.860703,439.482407 541.699396,430.190842 C543.733543,411.145592 545.007955,396.318729 545.522633,385.710253 C546.037311,375.101778 543.555406,356.953677 538.076918,331.265951" id="Path-26" stroke="#111111" stroke-width="6" fill="#111111" fill-rule="nonzero"></path>
                <path d="M554.108572,391.830825 C549.396017,391.920961 547.110551,391.920961 547.252173,391.830825 C547.582852,391.620363 548.144952,391.432415 548.938475,391.266983 C552.845319,390.452498 555.352165,386.6251 554.537673,382.718257 C554.440122,382.250336 554.296384,381.793248 554.108572,381.353711 L554.108572,381.353711 L554.108572,381.353711 C562.48883,383.437303 568.091046,385.546328 570.915221,387.680786 C573.739396,389.815244 577.636644,393.793985 582.606966,399.617009 L554.108572,391.830825 Z" id="Path-27" stroke="#111111" fill="#111111" fill-rule="nonzero"></path>
                <path d="M545.352313,348.168631 C534.786162,327.999189 528.216868,315.644296 525.644433,311.103954 C518.517061,298.524161 512.315925,292.969483 510.737054,290.783177 C508.959626,288.321923 506.736335,283.451664 504.06718,276.172399 C505.17152,254.396398 505.17152,237.810571 504.06718,226.414919 C503.292359,218.419563 501.476759,207.521272 498.620382,193.720044 L498.620382,193.720044 C495.952344,180.828819 490.393609,168.711155 482.362941,158.279929 C475.597278,149.491847 469.404754,142.078564 463.78537,136.040081 C454.983021,126.581244 443.588343,118.785753 429.601335,112.65361 L470.810825,100.127974 C473.74737,108.628636 476.73291,114.428481 479.767447,117.527509 C482.801984,120.626537 488.447307,123.640983 496.703417,126.570847 C509.613475,132.289287 518.085399,141.560987 522.119187,154.385948 C524.913126,163.268949 535.568895,185.465816 537.811758,209.544853 C538.475294,216.668465 536.70388,226.944853 532.497517,240.374018 C542.106383,249.309661 548.134867,256.867028 550.58297,263.04612 C553.031074,269.225212 554.684555,279.770793 555.543413,294.682862 C557.010409,298.172936 557.825658,300.089254 557.989159,300.431816 C563.582536,312.150843 560.63934,308.874196 566.622544,316.052994 C572.868094,323.546561 582.975971,332.94587 596.946175,344.250921 C617.359942,356.418126 630.197043,367.420881 635.457477,377.259186 C640.156791,386.048057 643.320042,395.124718 643.210859,396.638652 C643.202167,396.759166 642.865456,395.579657 642.200726,393.100124 L568.925487,377.359855 C568.613064,377.292743 568.300062,377.228356 567.986516,377.166699 L555.543413,374.71986 L555.543413,374.71986 L555.543413,370.822379 C555.543414,368.423823 555.183858,366.038817 554.476732,363.746865 C553.725827,361.313012 552.830947,358.872512 551.792094,356.425364 C550.206079,352.68931 548.631374,349.411948 547.067979,346.593279" id="Path-28" stroke="#111111" stroke-width="4" fill="#111111" fill-rule="nonzero"></path>
                <path d="M259.088715,88.4969247 C276.228754,74.2348971 294.335771,65.7248971 296.58976,64.5202768 C298.843749,63.3156565 277.840047,76.0305689 269.797754,82.7735943 C264.436225,87.2689446 259.363013,92.9259975 254.578117,99.7447529 C251.86796,104.195555 250.194193,107.829217 249.556816,110.645739 C248.600751,114.870523 247.384687,117.010809 249.556816,121.933526 C251.728946,126.856242 256.374827,125.80433 257.868556,129.482707 C259.362284,133.161084 258.740348,137.871578 257.868556,140.454511 C256.996764,143.037444 255.70742,143.803443 252.793177,144.519969 C249.878934,145.236495 247.461828,143.400775 241.33359,144.519969 C241.176531,144.548652 241.019811,144.578305 240.86343,144.608927 L240.86343,144.608926 C235.2149,145.71499 230.067644,148.597201 226.172731,152.834998 C224.413899,154.748666 222.650525,156.523026 220.88261,158.158076 C217.90909,160.908126 215.404766,162.2762 213.369637,162.262404 L213.369637,162.262404 C210.348491,162.262404 208.344717,161.786688 207.358314,160.835467 C204.291912,157.878874 206.108073,152.359411 207.358314,148.72565 C209.008987,143.928059 214.219822,136.273209 222.99082,125.761101 C235.629391,110.426335 247.662023,98.0049432 259.088715,88.4969247 Z" id="Path-29" stroke="#111111" fill="#111111" fill-rule="nonzero"></path>
                <path d="M422.284781,255.816385 C423.281872,257.073375 424.125744,257.663605 424.816397,257.587074 C428.566589,257.171517 432.716126,253.912326 436.007262,251.607023 C436.5274,251.242688 442.931606,247.28842 443.586972,246.87466 C445.113446,245.910934 448.243874,243.458727 452.174782,241.415812 C456.204446,239.321573 459.660309,234.923355 475.536101,236.211883 C486.119962,237.070902 494.359952,240.106354 500.25607,245.318239 C496.997984,240.245771 493.639939,236.624705 490.181935,234.455039 C486.723931,232.285373 480.862318,230.121722 472.597096,227.964086 C462.250183,227.344199 454.177674,228.105498 448.379567,230.247983 C442.58146,232.390468 434.999057,237.413886 425.632357,245.318239 L419.288197,251.607023 L422.284781,255.816385 Z" id="Path-30" stroke="#111111" fill="#111111" fill-rule="nonzero"></path>
                <path d="M356.73911,259.620248 L340.102803,255.749095 C331.41987,254.617632 325.246675,253.970603 321.583218,253.80801 C313.371969,253.443575 305.724867,253.443575 302.666615,253.80801 C296.312507,254.565195 288.837681,256.502607 280.242136,259.620248 C270.168442,264.329469 262.338275,269.167886 256.751633,274.135498 C251.164992,279.10311 244.559576,287.100738 236.935385,298.128381 C246.743982,290.085236 255.203146,283.625841 262.312875,278.750196 C267.359152,275.289606 272.748553,271.604548 273.577773,271.098374 C274.500993,270.53482 276.007566,268.73828 282.46819,267.671774 C294.731638,265.647351 301.00185,266.543474 313.698498,266.543474 C322.16293,266.543474 334.600451,267.398223 351.011063,269.10772 C352.987708,268.575214 354.331334,267.720465 355.04194,266.543474 C355.752547,265.366484 356.31827,263.058741 356.73911,259.620248 Z" id="Path-31" stroke="#111111" fill="#111111" fill-rule="nonzero"></path>
                <path d="M444.748901,296.416358 C443.381482,295.251862 442.568457,294.476029 442.309827,294.088859 C441.148015,292.349624 440.870022,290.196942 440.451646,288.782829 C439.89357,286.896523 439.89357,284.835585 440.451646,282.600015 C440.799269,285.234429 441.25965,287.424074 441.832789,289.168949 C442.405929,290.913825 443.377966,293.329627 444.748901,296.416358 Z" id="Path-32" stroke="#111111" fill="#040404" fill-rule="nonzero" transform="translate(442.390995, 289.508186) rotate(15.000000) translate(-442.390995, -289.508186) "></path>
                <path d="M340.06816,312.914565 C338.700741,311.750069 337.887716,310.974235 337.629086,310.587066 C336.467274,308.847831 336.189281,306.695149 335.770905,305.281035 C335.212829,303.394729 335.212829,301.333791 335.770905,299.098222 C336.118528,301.732636 336.578909,303.922281 337.152048,305.667156 C337.725188,307.412031 338.697226,309.827834 340.06816,312.914565 Z" id="Path-32-Copy" stroke="#111111" fill="#111111" fill-rule="nonzero" transform="translate(337.710254, 306.006393) scale(-1, 1) rotate(34.000000) translate(-337.710254, -306.006393) "></path>
                <path d="M455.138704,289.645537 L444.606997,299.457337 C442.717777,296.8175 441.97911,295.362559 442.390995,295.092514 C442.646023,294.92531 442.241931,294.897011 443.127048,295.092514 C443.223939,295.113915 444.774648,293.382836 444.849164,293.292262 C446.121177,291.746119 446.969129,290.436935 450.578632,287.17725 C450.640763,287.12114 451.017743,286.730665 451.709571,286.005824" id="Path-33" stroke="#111111" fill="#111111" fill-rule="nonzero"></path>
                <path d="M336.084418,309.213393 C335.201468,310.624525 335.36074,311.811068 336.562232,312.773021 C337.763724,313.734973 338.539588,314.296743 338.889824,314.45833 L338.098654,308.45648" id="Path-2" stroke="#111111" fill="#111111" fill-rule="nonzero"></path>
                <path d="M443.92739,300.035537 L443.041419,300.688662 L442.44261,301.098576 C441.723392,298.752045 441.274256,297.00891 441.0952,295.869171 C440.916144,294.729432 440.822056,293.514987 440.812936,292.225837 L443.92739,300.035537 Z" id="Path-3" stroke="#111111" fill="#040404" fill-rule="nonzero"></path>
                <path d="M278.437184,314.17181 L266.576644,323.820187 C268.312677,320.278173 269.718831,317.724676 270.795106,316.159697 C271.871381,314.594718 273.494867,312.951752 275.665564,311.230799 L278.437184,314.17181 Z" id="Path-34" stroke="#111111" fill="#040404" fill-rule="nonzero"></path>
                <path d="M553.686115,382.487351 C553.182879,384.761055 552.603329,386.491233 551.947466,387.677885 C551.291604,388.864537 549.72444,390.24885 547.245976,391.830825 L558.010476,390.48536 L553.686115,382.487351 Z" id="Path-35" stroke="#111111" fill="#111111" fill-rule="nonzero"></path>
                <path d="M447.206828,370.965565 L446.456524,373.915398 C443.746171,380.612222 438.127775,385.276447 429.601335,387.908075 C421.074895,390.539703 414.396971,387.644351 409.567562,379.22202 C411.342171,380.057384 412.649026,380.658485 413.48813,381.025324 C421.45025,384.5062 427.483523,385.952495 431.587948,385.364209 C438.717829,384.342284 443.890389,376.536211 446.456524,372.455707 C449.022659,368.375203 449.337847,358.842228 446.456524,349.464565 C445.353466,345.874511 442.643113,340.55067 438.325466,333.493042 C429.293879,322.175796 423.243801,314.403906 420.175231,310.177372 C414.202502,301.950754 410.666612,296.135491 409.567562,292.731581 C407.621535,286.704464 408.959651,278.098327 413.581908,266.913168 C407.428192,274.526537 404.712127,281.222505 405.433714,287.001072 C406.155301,292.77964 412.010034,301.769161 422.997913,313.969636 C417.128081,306.115675 412.931794,300.115324 410.409054,295.968582 C407.886313,291.82184 406.613672,288.83267 406.591131,287.001072 L409.567562,277.147925" id="Path-5" stroke="#111111" stroke-width="3"></path>
                <path d="M414.072727,382.298218 C417.269205,384.826578 419.798757,386.442418 421.661385,387.145739 C423.524012,387.84906 425.273741,387.84906 426.910571,387.145739" id="Path-6" stroke="#111111" stroke-width="3"></path>
                <path d="M461.708994,364.642871 C463.038727,367.243921 463.703593,369.723632 463.703593,372.082003 C463.703593,374.440374 462.654247,377.531297 460.555554,381.35477 C461.44466,381.062231 462.078302,380.665896 462.456481,380.165768 C465.69154,375.887515 466.7477,372.379022 465.624963,369.640289 C464.305354,366.42132 458.43435,361.023997 448.011953,353.44832 L447.32145,352.46763" id="Path-7" stroke="#111111" stroke-width="3"></path>
                <path d="M376.27584,396.647031 C371.104091,391.598432 368.857635,386.998349 369.536471,382.846783 C370.215308,378.695216 374.420211,373.383356 382.15118,366.9112" id="Path-8" stroke="#111111" stroke-width="4"></path>
                <path d="M426.494461,386.632928 C429.532624,386.232883 431.456623,385.832414 432.266456,385.43152 C439.302414,381.948496 441.920808,377.993158 443.92739,374.796323 C446.280405,371.047559 447.411759,363.604661 447.32145,352.46763" id="Path-9" stroke="#111111" stroke-width="2"></path>
                <path d="M377.186837,395.422458 L382.15118,398.99059 C381.642891,399.450158 381.199777,399.725764 380.821838,399.81741 C380.268629,399.951556 379.069705,399.842488 378.771638,399.81741 C377.463011,399.707306 374.186513,397.038152 373.547459,396.370568 C373.290351,396.101983 372.585696,395.122588 371.433493,393.432385" id="Path-36" stroke="#111111" fill="#040404" fill-rule="nonzero"></path>
                <path d="M381.240708,366.022639 C381.024279,365.924594 381.066108,365.801338 381.366194,365.652871 C381.508446,365.582492 382.143196,365.273661 381.918051,365.362991 C380.255474,366.022639 383.212631,364.541538 384.377548,364.176051 C384.861636,364.024171 385.701164,363.892901 386.896134,363.782242 C385.240656,365.569165 384.155356,366.799057 383.640233,367.471919 C383.12511,368.14478 382.922635,368.234188 383.032809,367.740143 L381.240708,366.022639 Z" id="Path-38" stroke="#111111" fill="#111111" fill-rule="nonzero"></path>
                <path d="M410.797699,298.128381 C428.852541,319.123976 439.895772,336.249512 443.92739,349.504991 C447.959008,362.76047 445.353365,373.37671 436.11046,381.353711 C432.64429,383.577695 430.03443,384.788366 428.28088,384.985724 C426.527329,385.183082 423.930919,384.767289 420.491649,383.738348" id="Path-39" stroke="#111111" stroke-width="2"></path>
                <path d="M420.491649,383.738348 C425.319116,383.944254 429.017883,383.527255 431.587948,382.487351 C434.158013,381.447447 437.722166,378.925713 442.280407,374.922147" id="Path-40" stroke="#111111" stroke-width="3"></path>
                <path d="M391.982079,387.67323 C391.366564,388.456308 390.549433,388.847847 389.530685,388.847847 C388.002562,388.847847 388.002562,388.847847 386.896134,387.67323 C385.789706,386.498613 387.463493,384.860335 389.530685,383.789396 C390.908812,383.075436 392.64645,382.578377 394.743597,382.298218 C397.180787,381.729086 398.929425,381.729086 399.98951,382.298218 C401.579637,383.151917 403.513152,385.740004 402.592489,386.632928 C401.978714,387.228211 399.621265,387.228211 395.520142,386.632928 C394.77333,386.499823 394.173577,386.499823 393.720886,386.632928 C393.268194,386.766034 392.688592,387.112801 391.982079,387.67323 Z" id="Path-41" stroke="#111111" fill="#111111" fill-rule="nonzero"></path>
                <path d="M446.550804,380.029528 C446.097294,380.590755 445.495234,380.871369 444.744624,380.871369 C443.618707,380.871369 443.618707,380.871369 442.803494,380.029528 C441.988281,379.187687 443.221523,378.013543 444.744624,377.246007 C445.760024,376.734317 447.04031,376.378078 448.585482,376.177289 C450.381197,375.769396 451.669588,375.769396 452.450656,376.177289 C453.622257,376.78913 455.046865,378.643997 454.368523,379.28395 C453.916295,379.710586 452.179333,379.710586 449.157638,379.28395 C448.607389,379.188554 448.165493,379.188554 447.831951,379.28395 C447.498409,379.379346 447.07136,379.627872 446.550804,380.029528 Z" id="Path-41-Copy" stroke="#111111" fill="#111111" fill-rule="nonzero"></path>
                <path d="M446.46819,349.993042 C451.045993,353.079943 454.453314,355.654477 456.690152,357.716644 C458.92699,359.77881 461.351723,362.512619 463.96435,365.918069" id="Line-2" stroke="#111111" stroke-width="2" stroke-linecap="square"></path>
                <path d="M466.75254,369.550279 C466.667561,368.366653 466.080948,367.045989 464.992702,365.588288 C463.904456,364.130588 462.15434,362.293284 459.742356,360.076377 L466.75254,369.550279 Z" id="Path-42" stroke="#111111"></path>
                <path d="M461.961541,367.997513 C461.37521,366.302485 460.635481,364.982296 459.742356,364.036945 C458.84923,363.091594 457.340535,361.771405 455.21627,360.076377" id="Path-43" stroke="#111111"></path>
                <path d="M457.571379,357.955556 C460.249839,359.757141 462.141862,361.280124 463.247448,362.524506 C464.353034,363.768887 465.521398,365.838561 466.75254,368.733527" id="Path-44" stroke="#111111"></path>
                <path d="M390.224592,470.860192 C390.006852,470.813913 389.418454,470.752168 389.22308,470.524154 C388.970992,470.229951 388.762031,469.423133 388.596198,468.103701 L391.034349,469.010529 C391.133673,470.379485 390.863754,470.996039 390.224592,470.860192 Z" id="Path-45" stroke="#111111" fill="#111111" fill-rule="nonzero"></path>
                <path d="M477.888032,447.755821 C477.24887,447.619974 476.706072,446.701144 476.259637,444.99933 L478.697788,445.906159 C478.797112,447.275114 478.527193,447.891668 477.888032,447.755821 Z" id="Path-45-Copy" stroke="#111111" fill="#111111" fill-rule="nonzero" transform="translate(477.488732, 446.386773) scale(-1, 1) rotate(39.000000) translate(-477.488732, -446.386773) "></path>
                <path d="M391.581375,470.243169 C393.667922,470.946301 395.02618,471.395457 395.656151,471.590636 C420.442438,479.27001 435.676505,479.933635 445.76406,477.321741 C456.236195,474.610271 464.921914,467.762424 471.821218,456.778199" id="Path-46" stroke="#111111" stroke-width="3"></path>
                <path d="M390.586383,469.911625 C390.824761,470.345713 391.070198,470.824677 391.281728,471.171746 C393.092699,474.143102 394.214996,474.085896 400.179505,475.504596 C404.620299,476.56087 409.881799,477.627103 415.964003,478.703295 C419.09931,479.169421 421.446031,479.535675 423.004165,479.802056 C424.5623,480.068436 426.74011,480.353698 429.537595,480.65784 C435.73367,481.053849 439.381662,481.251853 440.481571,481.251853 C449.801212,481.251853 457.112192,477.887295 461.084971,474.85684 C468.062235,469.53455 480.294624,452.549572 476.637959,447.177173" id="Path-47" stroke="#111111" stroke-width="4"></path>
                <path d="M377.186837,444.264808 C376.528079,444.340873 375.449345,443.587377 373.950633,442.004319 L377.186837,442.284844 C377.845595,443.528755 377.845595,444.188742 377.186837,444.264808 Z" id="Path-48" stroke="#111111" fill="#111111" fill-rule="nonzero"></path>
                <path d="M382.606116,442.284844 C387.997978,443.59482 391.861194,443.732855 394.195766,442.698948 C396.530337,441.665041 399.466564,440.218919 403.004447,438.360582 L400.885929,440.196711 C398.07983,441.432765 396.113862,442.12881 394.988025,442.284844 C394.432953,442.361774 390.30565,442.361774 382.606116,442.284844 Z" id="Path-49" stroke="#111111" stroke-width="3"></path>
                <path d="M393.228372,441.556717 C396.015749,440.564476 398.133673,439.689121 399.582147,438.930652 C401.03062,438.172183 403.148545,436.829505 405.935921,434.902618" id="Path-50" stroke="#111111"></path>
                <path d="M485.275492,421.908577 L487.529195,420.166355 C487.214739,422.099586 486.909636,423.180516 486.613887,423.409145 C486.318138,423.637773 485.872006,423.137584 485.275492,421.908577 Z" id="Path-51" stroke="#111111" fill="#111111" fill-rule="nonzero"></path>
                <path d="M272.262627,130.91198 C268.868732,134.377209 270.439118,132.85496 276.973785,126.345236 C286.775785,116.58065 286.309893,112.514068 291.405596,106.455988 C299.678526,96.6206295 299.381868,88.4509678 311.262848,79.9505389 C323.143828,71.4501101 329.562686,70.1148735 342.199276,70.1148735 C350.62367,70.1148735 357.047897,67.8031087 361.471957,63.1795792" id="Path-52" stroke="#111111" stroke-width="5"></path>
                <path d="M360.176457,61.63451 L365.608378,55.4506019 C364.582883,60.6523725 363.752374,63.615009 363.116853,64.3385115 C362.481331,65.062014 361.501199,64.1606801 360.176457,61.63451 Z" id="Path-53" stroke="#111111" fill="#111111" fill-rule="nonzero"></path>
                <path d="M267.194992,132.198414 C265.18317,135.703174 272.865554,136.587462 276.208819,134.10847 C278.437663,132.455809 281.823661,126.938757 286.366815,117.557313 L297.710938,93.7924975 C288.656208,106.913445 282.444307,115.451867 279.075236,119.407763 C272.246364,127.426087 267.965789,130.855621 267.194992,132.198414 Z" id="Path-54" stroke="#111111" fill="#111111" fill-rule="nonzero"></path>
                <path d="M337.667799,99.9140141 C338.360647,98.5078435 341.831733,96.080155 348.081058,92.6309485 C357.455045,87.4571388 365.124228,84.5230131 369.466941,81.3407843 C375.38882,77.0013828 378.846534,72.7577305 379.840083,68.6098274 C375.052725,73.5997264 371.303462,76.8046896 368.592295,78.224717 C362.303179,81.5187657 354.732686,81.944903 351.029315,82.4335266 C341.882173,83.6404024 314.05236,102.336806 307.773894,109.461667 C303.58825,114.211574 293.646404,121.463752 277.948356,131.218201 C283.549714,128.692151 288.232761,127.245143 291.997497,126.877177 C297.644602,126.325228 301.28946,129.932341 308.62707,128.219657 C315.964679,126.506973 314.783548,125.857928 320.583389,120.204895 C324.449949,116.436206 330.144752,109.672579 337.667799,99.9140141 Z" id="Path-55" stroke="#111111" fill="#111111" fill-rule="nonzero"></path>
                <path d="M345.207945,111.416581 C352.196949,112.573895 358.270829,111.951437 363.429586,109.549207 C371.167722,105.945863 376.105336,102.620516 385.052564,93.7924975 C393.999792,84.9644788 397.383492,86.2336669 401.145454,85.2417947 C403.78808,84.5450446 407.768883,83.5018217 413.087863,82.1121262" id="Path-56" stroke="#111111" stroke-width="5"></path>
                <path d="M345.207945,113.419842 C343.929645,113.419842 342.002007,112.31201 339.425031,110.096345 C342.928207,109.576182 344.855845,109.304981 345.207945,109.282743 C345.560045,109.260504 345.86275,109.390837 346.11606,109.67374" id="Path-57" stroke="#111111" fill="#111111" fill-rule="nonzero"></path>
                <path d="M413.748354,84.0425901 C415.822276,83.689436 418.623003,81.7290515 422.150533,78.1614366 L412.754461,80.1216754 C411.343134,83.0887727 411.674432,84.3957442 413.748354,84.0425901 Z" id="Path-58" stroke="#111111" fill="#111111" fill-rule="nonzero"></path>
                <path d="M365.608378,117.948752 C366.390088,117.873111 366.973624,117.816115 367.358987,117.777763 C367.859492,117.727953 368.35588,117.677744 368.84815,117.627137 C383.652173,116.10523 394.732121,114.223183 402.087994,111.980997 C413.912446,108.376717 415.699973,99.5257698 427.929541,97.0465615 C436.082586,95.393756 450.851116,95.6944444 472.235129,97.9486267 L424.274538,111.980997 C418.968187,111.205348 414.842408,110.995042 411.897201,111.350077 C408.951994,111.705112 404.951703,112.806924 399.896329,114.655513 L393.860704,116.833291 C389.726475,117.622754 386.606276,117.994575 384.500107,117.948752 C379.260615,117.83476 372.963372,117.777763 365.608378,117.777763" id="Path-59" stroke="#111111" fill="#111111" fill-rule="nonzero"></path>
                <path d="M478.191911,95.9977615 C473.351818,96.2283353 468.587931,96.2283353 463.900251,95.9977615 C450.246244,95.3261592 435.28003,92.8565161 425.110201,94.9542849 C418.834538,96.2487892 412.964001,105.140781 405.157422,109.280311 C399.953036,112.039999 395.961778,113.781766 393.183648,114.505613" id="Path-60" stroke="#111111" stroke-width="5"></path>
                <path d="M474.397584,97.6191665 C473.723298,95.946628 473.002479,96.7828973 472.235129,100.127974 L485.272969,97.0465615 L479.768644,93.9667669 C479.002253,93.9667669 478.53069,93.9667669 478.353954,93.9667669 C478.177219,93.9667669 477.992894,94.0199335 477.800979,94.1262667" id="Path-61" stroke="#111111" fill="#111111" fill-rule="nonzero"></path>
                <path d="M396.292287,112.252781 C398.664278,112.432391 397.448548,113.062029 392.645096,114.141694 C387.841645,115.22136 380.604623,116.491636 370.934033,117.952523 L365.608378,117.952523 L363.446456,117.097493 C366.67443,117.421271 371.678228,117.083769 378.457847,116.084987 C385.237467,115.086205 389.17288,114.211103 390.264089,113.459682 C391.522105,112.991994 392.315774,112.699248 392.645096,112.581444 C392.974418,112.463641 394.190149,112.164889 396.292287,111.685188" id="Path-62" stroke="#111111" fill="#111111" fill-rule="nonzero"></path>
                <path d="M191.622119,131.218201 C189.946657,115.151554 189.946657,102.67632 191.622119,93.7924975 C194.135312,80.4667645 208.041746,55.4506019 231.095355,48.5111471 C254.148963,41.5716922 260.15918,22.9289374 277.948356,13.1414166 C295.737533,3.35389587 305.2908,-0.700645231 319.087819,0.0981093901 C332.884837,0.896864012 333.748302,13.1782361 365.608378,18.3667171 C381.361928,20.9322162 397.88501,31.614766 422.150533,43.9746781 C427.784513,46.8444081 438.714678,50.669716 454.941028,55.4506019 C471.153821,56.5040071 482.864978,58.0255953 490.0745,60.0153664 C500.888782,63.000023 519.256374,75.0983311 531.743912,93.7924975 C544.231451,112.486664 558.04431,140.785199 571.341897,171.487163 C584.639485,202.189127 582.40365,214.951215 592.379258,233.789633 C599.029663,246.348579 608.441446,256.181038 620.614605,263.287009 C640.417842,272.824599 656.281328,287.064393 668.205061,306.006393 C680.128795,324.948393 687.624399,344.061109 690.691871,363.344541 C695.103091,382.645903 699.680582,396.945365 704.424347,406.242928 C711.539993,420.189273 716.995098,417.244505 720.830443,430.190842 C724.665788,443.137179 712.386167,449.885324 708.337771,467.740747 C705.815735,478.864169 714.508394,494.67844 714.508394,503.709432 C714.508394,512.740424 694.722314,540.75706 701.530042,545.472956 C703.84423,547.076056 714.052547,558.517521 714.508394,567.331888 C714.800488,572.979884 711.439138,582.705271 704.424347,596.508049" id="Path-63" stroke="#111111" stroke-width="9"></path>
                <path d="M13.6961581,656.780901 C23.2013147,641.578427 26.6218529,623.610422 23.9577725,602.876887 C19.961652,571.776583 1.42108547e-14,571.475572 1.42108547e-14,550.188853 C1.42108547e-14,528.902134 21.9161498,516.561227 18.5996949,494.23202 C16.9595504,483.189165 -1.72544621,479.817029 7.61705207,452.914334 C14.4457959,433.250256 20.4810086,435.231291 23.9577725,423.665188 C38.407848,375.594321 19.4733896,414.285641 38.9626992,363.344541 C43.5696616,351.302876 52.1202898,341.990663 56.9431139,331.153369 C65.7219508,311.426578 56.7133372,324.39645 66.4668436,300.686418 C69.6319409,292.992306 76.0325124,289.300692 79.333825,282.430998 C82.8146889,275.187676 80.8470174,276.994786 85.5445952,260.861226 C90.242173,244.727667 78.7051987,253.541226 94.9699468,228.729641 C95.6762681,227.65216 100.281493,221.925625 100.955249,220.816909 C110.624728,204.905057 103.588052,189.218432 111.234695,165.733464 C118.881338,142.248497 121.196366,138.763139 130.465209,130.18361 C139.734052,121.604081 144.343488,118.788206 160.087859,120.513459 C175.83223,122.238711 197.589165,151.818002 190.365523,115.160584" id="Path-64" stroke="#111111" stroke-width="9"></path>
            </g>
        </g>
    </g>
</svg>