<?xml version="1.0" encoding="UTF-8"?>
<svg width="426px" height="360px" viewBox="0 0 426 360" version="1.1" xmlns="http://www.w3.org/2000/svg" xmlns:xlink="http://www.w3.org/1999/xlink">
    <title>Artboard Copy 3</title>
    <g id="Artboard-Copy-3" stroke="none" stroke-width="1" fill="none" fill-rule="evenodd" transform="translate(1.000000, 0.000000)">
        <g id="Oval-Copy-5" transform="translate(174.500000, 128.000000) rotate(5.000000) translate(-174.500000, -128.000000) translate(-60.000000, -71.000000)">
            <g id="Mask" transform="translate(0.407424, 0.700589)">
                <path d="M205.667027,302.640774 C202.935708,298.482808 200.8276,295.561484 199.342703,293.876803 C197.857805,292.192121 196.751339,290.939452 196.023304,290.118797 L198.20331,290.665846 C197.937885,290.647068 197.937885,290.464718 198.20331,290.118797 C198.405218,289.855656 198.745192,289.495539 199.223232,289.038446 C199.510169,288.764078 199.942496,288.717188 200.280272,288.923797 C200.64586,289.147417 200.925051,289.490855 201.071584,289.897206" id="Line" stroke="#E56161" stroke-width="1.728" fill="#E56161" fill-rule="nonzero" stroke-linecap="square"></path>
                <path d="M242.457176,234.276977 C251.674356,225.797816 261.749047,225.410289 272.681249,233.114393" id="Path" stroke="#E56161" stroke-width="2.16"></path>
                <path d="M258.538378,244.98271 C265.169257,244.98271 269.69485,241.601912 270.674577,236.664562 L270.709995,236.475194 L270.709995,236.475194 L270.74445,236.220475 L270.74445,236.220475 L270.796139,235.760642 L270.796139,235.760642 L270.828672,235.414087 L270.828672,235.414087 L270.848828,235.162522 L270.848828,235.162522 L270.866548,234.899523 L270.866548,234.899523 L270.88079,234.629367 C270.882816,234.583982 270.884654,234.538477 270.886283,234.492942 L270.893361,234.22007 C270.9039,233.540528 270.857492,232.894132 270.681081,232.581602 C268.908269,229.440877 263.677328,228.069677 258.538378,228.069677 C258.165283,228.069677 257.780896,228.078473 257.388607,228.096078 L256.914283,228.121432 C256.755055,228.131293 256.594779,228.142565 256.433673,228.155248 L255.948078,228.19753 C252.209401,228.554161 248.145916,229.657699 246.395676,231.518363 L246.269015,231.657149 L246.269015,231.657149 L246.156674,231.789315 C245.787876,232.241601 245.671737,232.592566 245.698337,233.055661 L245.709726,233.19121 C245.714753,233.237532 245.720981,233.285056 245.728313,233.333967 L245.753529,233.485039 L245.753529,233.485039 L245.784804,233.645533 L245.784804,233.645533 L245.863251,233.999209 L245.863251,233.999209 L246.039658,234.746092 L246.039658,234.746092 L246.125519,235.125716 L246.125519,235.125716 L246.184754,235.401408 L246.184754,235.401408 L246.244922,235.696478 L246.244922,235.696478 L246.30545,236.012033 L246.30545,236.012033 L246.365771,236.349178 L246.365771,236.349178 L246.395676,236.526194 C247.163775,241.165695 251.832149,244.98271 258.538378,244.98271 Z" id="Oval" fill="#E56161" fill-rule="nonzero"></path>
                <path d="M348.146055,230.7597 C354.109007,229.365166 357.47571,225.322776 357.332225,220.601464 L357.324085,220.408121 L357.324085,220.408121 L357.3118,220.267524 L357.3118,220.267524 L357.276447,219.935743 L357.276447,219.935743 L357.23544,219.603912 L357.23544,219.603912 L357.181787,219.222585 L357.181787,219.222585 L357.138893,218.950486 L357.138893,218.950486 L357.09023,218.670814 L357.09023,218.670814 L357.035737,218.38934 C356.901739,217.734954 356.719646,217.112979 356.48604,216.853303 C354.235542,214.351633 349.242282,214.19741 344.617849,215.278908 C343.946367,215.435945 343.241583,215.63469 342.527908,215.869535 L342.098831,216.014729 C341.883955,216.089447 341.668717,216.167313 341.453779,216.248177 L341.024494,216.413853 C338.167851,217.544402 335.442357,219.189747 334.41031,220.990998 C334.405272,220.99979 334.382385,220.980978 334.348809,220.945585 L334.269529,220.855957 L334.269529,220.855957 L334.030182,220.567058 L334.030182,220.567058 L333.951404,220.477012 C333.918151,220.44135 333.895694,220.422178 333.891194,220.430522 C333.546154,221.070311 333.612857,221.610789 333.901289,222.300923 L333.981437,222.484517 L333.981437,222.484517 L334.070895,222.675882 L334.070895,222.675882 L334.168913,222.876001 L334.168913,222.876001 L334.761169,224.042286 L334.761169,224.042286 L334.894806,224.315556 L334.894806,224.315556 L335.031757,224.604455 C335.054816,224.653962 335.077982,224.704161 335.101239,224.755073 L335.241753,225.069258 L335.241753,225.069258 L335.383705,225.401528 L335.383705,225.401528 L335.454987,225.574752 C337.114024,229.659721 342.111258,232.171035 348.146055,230.7597 Z" id="Oval-Copy" fill="#E36060" fill-rule="nonzero"></path>
                <path d="M331.532778,221.681569 C334.404878,218.46718 337.725962,216.257321 341.496029,215.051991 C345.266095,213.846661 351.641592,214.955753 360.622517,218.379268" id="Path-4" stroke="#E56161" stroke-width="2.592"></path>
                <path d="M293.053326,301.243025 C299.908517,302.579449 305.581227,303.247661 310.071459,303.247661 C314.56169,303.247661 320.274096,302.579449 327.208676,301.243025 C332.058146,299.614069 335.696243,298.185312 338.122966,296.956753 C340.54969,295.728195 343.875824,293.631226 348.101369,290.665846" id="Path-10" stroke="#E56161" stroke-width="1.296"></path>
                <path d="M301.936097,302.996067 C302.269313,302.629523 302.522173,302.358627 302.69468,302.183378 C308.450162,296.336396 312.820076,292.673233 316.288534,290.665846 C319.912928,288.568209 322.286368,288.568209 323.408855,290.665846" id="Path-11" stroke="#E56161" stroke-width="1.296"></path>
                <path d="M323.169243,290.939539 L323.353742,290.665846 C325.246246,291.177383 326.840892,291.177383 328.137683,290.665846 C329.003269,290.324403 330.224628,289.820392 331.80176,289.153814 C333.409921,288.47412 335.259988,288.78371 336.566915,289.951213 L341.705815,294.541892 L341.705815,294.541892" id="Path-12" stroke="#E56161" stroke-width="1.296"></path>
                <path d="M323.339779,291.206397 C323.112745,291.174258 322.935581,290.991208 322.90835,290.760635 L322.897155,290.665846 L323.339779,291.206397 Z" id="Path-13" stroke="#E56161" stroke-width="1.08"></path>
                <path d="M299.832772,314.899434 C307.440565,317.384797 313.129639,318.92547 316.899995,319.521452 C320.67035,320.117435 324.728018,320.117435 329.072999,319.521452" id="Path-14" stroke="#E56161" stroke-width="1.296"></path>
                <path d="M329.072999,319.521452 C331.783913,318.832198 334.208577,317.291525 336.346991,314.899434 C338.485405,312.507343 340.910069,308.623418 343.620983,303.247661" id="Path-15" stroke="#E56161" stroke-width="1.296"></path>
                <path d="M338.953116,291.907905 C340.166115,293.031764 341.143223,293.593693 341.884441,293.593693 C342.625659,293.593693 343.261198,293.444615 343.791058,293.14646 C343.218629,293.157983 342.875536,293.157983 342.761777,293.14646 C341.685564,293.037448 341.4085,292.871281 340.941825,292.7508 C340.401157,292.611214 339.738254,292.330249 338.953116,291.907905 Z" id="Path-16" stroke="#E56161" stroke-width="1.296"></path>
                <path d="M299.763399,301.989966 C300.864283,302.011633 301.588515,301.970248 301.936097,301.865812 C302.28368,301.761376 303.090357,301.109255 304.35613,299.909446 C303.475628,300.660948 303.022484,301.046781 302.996701,301.066945 C302.625617,301.357156 302.448657,301.458087 302.102733,301.620747 C301.833048,301.747557 301.474332,301.989966 300.589882,301.989966 C300.485402,301.989966 300.209908,301.989966 299.763399,301.989966 Z" id="Path-17" stroke="#E56161" stroke-width="1.08"></path>
                <path d="M199.167609,290.665846 C201.477258,291.673617 202.764378,292.368602 203.028968,292.7508 C224.09625,323.182295 240.056712,342.232432 258.294737,350.607851 C271.311178,356.585371 293.588387,358.670722 318.640068,359.028364 C323.921041,359.103755 333.168743,361.649719 341.705815,359.028364 C347.649262,357.203395 352.681264,354.396557 356.801821,350.607851" id="Path-18" stroke="#E56161" stroke-width="5.184"></path>
                <path d="M244.718022,342.222604 C248.057561,346.123807 249.746945,348.127905 249.786171,348.234899 C253.572098,358.561409 250.963331,366.434415 249.786171,372.464181 C248.590716,378.58766 245.673236,384.247015 241.03373,389.442248 C236.731227,391.62241 233.121036,392.510298 230.203157,392.105908 C227.986548,391.798709 225.164398,390.874153 221.736707,389.332242 C218.993366,388.098179 215.991467,387.570047 212.998008,387.794821 C209.876209,388.029231 207.34053,388.578373 205.390972,389.442248 C203.290668,390.372919 200.571052,392.039626 197.232124,394.442369 C194.380882,396.494165 190.743426,397.069116 187.410645,395.99479 L182.018653,394.256676 C178.823417,393.226688 177.057433,389.767832 178.074217,386.531103 C178.161461,386.253377 178.268084,385.982285 178.393279,385.719875 L179.103897,384.23041 C181.393687,379.430981 180.918873,373.748824 177.865267,369.407572 C173.577914,363.312327 170.421774,358.414694 168.396851,354.714671 C165.944324,350.233316 164.5353,346.430987 164.169779,343.307683 L164.169778,343.307683 C164.075669,342.50354 163.958353,341.702359 163.817981,340.905167 C162.974771,336.116469 163.383926,330.960778 165.045448,325.438096 C166.860425,319.405347 167.977559,314.705032 168.396851,311.337149 C173.671406,321.383417 177.75966,328.616371 180.661614,333.03601 C182.40635,335.693223 185.144368,339.370044 189.461418,341.045893 C190.797668,341.564616 193.058589,341.91243 196.244179,342.089334 L196.244179,342.089333 C199.32496,342.260417 202.376653,341.407969 204.935449,339.661545 C207.34976,338.013735 209.007873,336.564569 209.909786,335.314046 C210.00058,335.188158 212.219423,333.03601 212.674908,330.778284 C213.130393,328.520558 213.893249,323.265493 209.909786,311.337149 C208.808866,308.040484 205.788635,301.728096 200.84909,292.399983" id="Path-19" stroke="#E56161" stroke-width="3.024" fill="#E56161" fill-rule="nonzero"></path>
                <path d="M193.697606,341.42661 C191.191321,341.242479 188.715412,340.087709 186.26988,337.9623 C185.149184,336.988305 183.864377,335.610792 182.41546,333.829761 L182.41546,333.829761 C178.573387,329.107029 176.35292,323.245988 176.089494,317.132038 C175.992552,314.882072 175.94408,312.966244 175.94408,311.384557 C175.94408,308.053868 176.373953,304.228831 177.233698,299.909446 C178.752198,310.762565 180.946451,318.381725 183.816458,322.766925 C186.09096,326.24223 189.472463,328.72933 193.960966,330.228225 L193.960965,330.228226 C196.342153,331.023402 198.952682,330.656012 201.029705,329.233415 C203.455132,327.572188 204.877826,325.942966 205.297789,324.345747 C205.872297,322.16075 204.937502,317.950849 202.493401,311.716044 C202.464688,311.6428 202.421151,311.532304 202.362788,311.384557 L202.362788,311.384557 C201.34324,308.805127 200.27818,306.564964 199.167609,304.664067 C198.452493,303.440047 195.980849,300.129292 193.697606,297.091569 C192.855861,295.971676 192.322674,295.300872 192.098046,295.079159" id="Path-20" stroke="#E56161" stroke-width="2.16"></path>
                <path d="M204.230279,321.178707 L189.551348,291.197389 C189.966481,291.386458 190.350345,291.605878 190.702941,291.855648 C190.881254,291.98196 190.803064,291.947644 191.240977,292.399983 C191.67889,292.852322 192.705535,294.410006 193.950419,296.312083 C194.072713,296.498936 193.2605,296.592639 193.399892,296.782887 C193.453548,296.856117 194.719767,300.646327 194.784036,300.736594 C195.894786,302.296679 197.637126,301.785379 198.247512,302.640774 C198.668233,303.230373 197.926831,302.361997 196.023304,300.035648 L204.230279,321.178707 Z" id="Path-21" stroke="#E56161" stroke-width="1.08" fill="#E56161" fill-rule="nonzero"></path>
                <path d="M190.702941,295.079159 C190.576465,295.153586 190.343176,295.199098 190.003072,295.215695 L189.806968,295.22188 C189.738069,295.222985 189.665639,295.223135 189.589678,295.222329 L189.351201,295.217044 L189.351201,295.217044 L189.091539,295.206023 L189.091539,295.206023 L188.81069,295.189267 L188.81069,295.189267 L188.508655,295.166776 L188.508655,295.166776 L188.015878,295.122285 L188.015878,295.122285 L187.660878,295.085455 C187.599946,295.078839 187.538131,295.071984 187.475433,295.064889 C186.720694,294.979491 185.797966,294.607638 184.707251,293.949327 L184.405618,293.762686 C184.252719,293.665814 184.096697,293.563616 183.93755,293.456091 L183.615092,293.233938 C183.397344,293.081102 183.174041,292.918796 182.945186,292.74702 L182.597739,292.482255 L182.597739,292.482255 L182.241961,292.203284 C182.18197,292.155605 182.121633,292.107335 182.060948,292.058472 L181.692675,291.758195 C181.630603,291.706966 181.568183,291.655144 181.505415,291.60273 L181.124648,291.281147 C181.060492,291.226366 180.99599,291.170993 180.93114,291.115029 L180.537877,290.772138 L180.537877,290.772138 L180.136284,290.415043 L180.136284,290.415043 L179.726362,290.043744 L179.726362,290.043744 L179.308109,289.658241 C179.237706,289.592806 179.166956,289.526781 179.095859,289.460163 C176.199808,285.861825 174.751782,282.85207 174.751782,280.430899 L174.753822,279.916914 L174.753822,279.916914 L174.760138,279.54867 L174.760138,279.54867 L174.768103,279.281144 L174.768103,279.281144 L174.779984,278.997624 L174.779984,278.997624 L174.796566,278.699507 L174.796566,278.699507 L174.818631,278.388189 C174.822809,278.33528 174.827248,278.281879 174.831965,278.228016 L174.863725,277.899514 L174.863725,277.899514 L174.902927,277.561303 C175.090059,276.076702 175.508878,274.357949 176.446235,272.91642 L176.648914,272.612601 L176.648914,272.612601 L177.189652,271.767722 L177.189652,271.767722 L177.393112,271.45835 L177.393112,271.45835 L177.620871,271.120594 L177.620871,271.120594 L177.786292,270.881081 L177.786292,270.881081 L178.054914,270.502434 L178.054914,270.502434 L178.247726,270.238333 L178.247726,270.238333 L178.451579,269.965893 L178.451579,269.965893 L178.666522,269.685971 L178.666522,269.685971 L178.892602,269.39942 L178.892602,269.39942 L179.129867,269.107098 L179.129867,269.107098 L179.378366,268.809859 C179.463077,268.710054 179.549668,268.609573 179.638147,268.508557 L179.909258,268.20405 C180.324445,267.745311 180.778033,267.278638 181.270754,266.817019 C181.886733,266.239923 182.962067,265.636397 184.496755,265.006441 C185.168087,264.920869 185.789407,264.859746 186.360713,264.823073 L186.779815,264.800151 C188.00899,264.745141 188.984974,264.813904 189.707768,265.006441 C190.26994,265.156192 190.909268,265.381948 191.625752,265.683712 L192.064901,265.87389 C192.662778,266.139623 193.310034,266.453999 194.00667,266.817019 C197.427635,267.232591 199.680475,266.629065 200.765192,265.006441 C201.171961,264.397957 201.511812,263.500538 201.784745,262.314183 L201.860905,261.967362 L201.860905,261.967362 L201.933423,261.604817 C201.945206,261.543082 201.956837,261.480693 201.968316,261.417647 L202.035372,261.031516 L202.035372,261.031516 L202.098786,260.62966 C202.109051,260.561373 202.119165,260.492432 202.129127,260.422835 L202.187078,259.997392 C202.215143,259.78074 202.241842,259.558191 202.267176,259.329745 L202.316023,258.864991 L202.316023,258.864991 L202.361228,258.384513 L202.361228,258.384513 L202.402791,257.888311 L202.402791,257.888311 L202.440712,257.376384 L202.440712,257.376384 L202.474991,256.848733 C202.480401,256.759481 202.485659,256.669573 202.490766,256.57901 L202.519582,256.027773 L202.519582,256.027773 L202.555979,255.171433 L202.555979,255.171433 L202.575691,254.580884 L202.575691,254.580884 L202.591762,253.974611 L202.591762,253.974611 C202.278916,252.112909 202.278916,250.296531 202.591762,248.525476 C202.904608,246.754421 203.618789,244.856606 204.734305,242.832031 C205.608191,240.381055 206.138706,238.27911 206.32585,236.526194 C206.356497,236.239132 206.382125,235.922188 206.402734,235.57536 L206.425056,235.144822 L206.425056,235.144822 L206.442561,234.685596 C206.445076,234.606668 206.447391,234.526544 206.449506,234.445225 L206.459783,233.942967 C206.461095,233.856867 206.462205,233.769571 206.463115,233.68108 L206.466165,233.13579 C206.466271,233.042518 206.466178,232.94805 206.465883,232.852387 C206.455085,229.347221 206.799291,225.850179 207.493093,222.416177 L207.698585,221.388751 L207.698585,221.388751 L207.896434,220.378484 L207.896434,220.378484 L208.086641,219.385375 L208.086641,219.385375 L208.269205,218.409424 L208.269205,218.409424 L208.444126,217.450631 C208.472643,217.292262 208.500841,217.134608 208.528721,216.977669 L208.692179,216.044613 L208.692179,216.044613 L208.847993,215.128715 L208.847993,215.128715 L208.996165,214.229975 L208.996165,214.229975 L209.136695,213.348394 L209.136695,213.348394 L209.269581,212.48397 C209.291092,212.34133 209.312285,212.199404 209.333159,212.058193 L209.454581,211.219506 C209.474182,211.081155 209.493463,210.943519 209.512427,210.806598 L209.622385,209.993648 C209.640075,209.859587 209.657446,209.72624 209.674499,209.593608 L209.772994,208.806396 C209.788773,208.676624 209.804233,208.547566 209.819375,208.419224 L209.906406,207.657749 L209.906406,207.657749 L209.985794,206.913432 L209.985794,206.913432 L210.057539,206.186273 C210.06886,206.06651 210.079862,205.947462 210.090546,205.829129 L210.150828,205.127707 C210.160237,205.012233 210.169329,204.897474 210.178102,204.78343 L210.215506,204.275225 L210.215506,204.275225 L210.250709,203.751645 L210.250709,203.751645 L210.283712,203.21269 L210.283712,203.21269 L210.329092,202.375431 L210.329092,202.375431 L210.36952,201.503577 L210.36952,201.503577 L210.393723,200.903122 L210.393723,200.903122 L210.4259,199.973613 L210.4259,199.973613 L210.453128,199.009511 L210.453128,199.009511 L210.468529,198.347557 L210.468529,198.347557 L210.481731,197.670229 L210.481731,197.670229 L210.497407,196.625408 L210.497407,196.625408 L210.508133,195.545994 L210.508133,195.545994 L210.512534,194.807166 L210.512534,194.807166 L210.515009,193.670096 L210.515009,193.670096 L210.512534,192.498433 L210.512534,192.498433 L210.505108,191.292177 L210.505108,191.292177 L210.497407,190.468787 L210.497407,190.468787 L210.481731,189.204875 L210.481731,189.204875 L210.461104,187.906369 L210.461104,187.906369 L210.4259,186.121216 L210.4259,186.121216 L210.393723,184.741992 L210.393723,184.741992 L210.343118,182.849215 L210.343118,182.849215 L210.283712,180.894939 L210.283712,180.894939 L210.215506,178.879163 L210.215506,178.879163 L210.178102,177.848213 L210.178102,177.848213 C210.171987,173.358414 209.435598,169.774931 207.968935,167.097765 C207.499603,166.241071 206.863848,165.309905 206.06167,164.304265 L205.753052,163.923659 L205.753052,163.923659 L205.428832,163.536072 C205.152148,163.210173 204.859212,162.877002 204.550023,162.536557 L204.171196,162.124533 C204.106758,162.055281 204.04167,161.985738 203.975931,161.915903 L203.5737,161.493406 C203.505362,161.422409 203.436373,161.35112 203.366735,161.27954 L202.941101,160.84657 C202.796622,160.701083 202.649544,160.554433 202.499865,160.406618 L202.043027,159.959685 L202.043027,159.959685 L201.570586,159.50577 L201.570586,159.50577 L201.082544,159.044873 L201.082544,159.044873 L200.578899,158.576994 L200.578899,158.576994 L200.059653,158.102134 C199.971812,158.022408 199.88332,157.942392 199.794179,157.862085 L199.251529,157.376752 L199.251529,157.376752 L198.693277,156.884436 L198.693277,156.884436 L198.453995,156.616616 L198.453995,156.616616 L197.981513,156.093792 L197.981513,156.093792 L197.517138,155.588061 L197.517138,155.588061 L197.06087,155.099422 C196.985501,155.019407 196.91047,154.940103 196.835776,154.861512 L196.391669,154.39851 L196.391669,154.39851 L195.95567,153.952601 C195.811688,153.806813 195.669057,153.663874 195.527778,153.523783 L195.107993,153.112057 C194.830839,152.843271 194.559089,152.585879 194.292744,152.339882 L193.897281,151.979432 C193.440637,151.568876 193.000545,151.193217 192.577005,150.852455 L192.218025,150.568918 C191.685635,150.156432 191.180607,149.801631 190.702941,149.504515 C188.954622,148.417032 186.513789,147.443573 183.380444,146.584136 L182.698414,146.401717 C182.23666,146.281268 181.760773,146.163145 181.270754,146.047349 L181.635304,146.323531 L181.635304,146.323531 L182.354829,146.874044 C182.711399,147.148685 183.063181,147.422401 183.410175,147.695192 L184.097778,148.239541 L184.097778,148.239541 L184.772613,148.781425 C184.99543,148.961642 185.216118,149.141448 185.434679,149.320843 L186.083976,149.857796 C186.619737,150.304229 187.142198,150.748094 187.651357,151.18939 L188.255965,151.717713 C188.355669,151.805561 188.454841,151.893307 188.55348,151.98095 L189.138935,152.505573 C189.42847,152.767269 189.713217,153.028041 189.993176,153.287887 L190.546709,153.806347 C190.637901,153.892551 190.72856,153.978653 190.818688,154.064652 L191.353068,154.579414 C195.929034,159.029996 199.066409,163.202779 200.765192,167.097765 C203.50938,173.389663 205.362933,180.160608 206.32585,187.4106 L206.349553,188.923757 L206.349553,188.923757 L206.369306,190.585041 L206.369306,190.585041 L206.379578,192.077775 L206.379578,192.077775 L206.379578,193.606268 L206.379578,193.606268 L206.369306,194.733809 L206.369306,194.733809 L206.357191,195.391865 L206.357191,195.391865 L206.336121,196.10909 L206.336121,196.10909 L206.294039,197.278426 L206.294039,197.278426 L206.27329,197.67455 L206.27329,197.67455 L206.253792,197.955463 C206.250097,198.003203 206.246166,198.051362 206.241978,198.099881 L206.213609,198.394827 C206.075923,199.687433 205.737281,201.141398 204.8403,201.694497 L204.734305,201.754257 C202.745333,202.774123 201.098184,207.134027 199.636094,212.437948 L199.423433,213.220592 L199.423433,213.220592 L199.213304,214.015046 L199.213304,214.015046 L199.0056,214.81964 L199.0056,214.81964 L198.800209,215.632706 L198.800209,215.632706 L198.496225,216.864539 L198.496225,216.864539 L198.097995,218.52106 L198.097995,218.52106 L197.514053,221.00889 L197.514053,221.00889 L196.755893,224.261599 L196.755893,224.261599 L196.383605,225.830318 L196.383605,225.830318 L196.198776,226.594428 L196.198776,226.594428 L196.014679,227.342814 L196.014679,227.342814 L195.831205,228.073807 L195.831205,228.073807 L195.648243,228.785738 L195.648243,228.785738 L195.465686,229.476938 L195.465686,229.476938 L195.283423,230.145739 C195.253065,230.255247 195.222714,230.363751 195.192368,230.471218 L195.010344,231.103291 C194.676685,232.238245 194.343136,233.239236 194.00667,234.059993 L193.144046,236.16922 L193.144046,236.16922 L192.795421,237.014342 L192.795421,237.014342 L192.442477,237.858423 C190.842242,241.652592 189.064764,245.377552 186.488043,248.525476 C186.303592,248.750815 186.102435,248.982964 185.88457,249.221923 L185.615114,249.511942 C185.522622,249.609705 185.427457,249.708557 185.329619,249.808499 L185.028084,250.111593 L185.028084,250.111593 L184.710511,250.421225 L184.710511,250.421225 L184.3769,250.737395 L184.3769,250.737395 L184.027249,251.060101 L184.027249,251.060101 L183.66156,251.389346 C183.599275,251.444765 183.536322,251.500456 183.4727,251.55642 L183.082953,251.89547 C183.016659,251.952524 182.949696,252.00985 182.882065,252.067448 L182.468259,252.416305 L182.468259,252.416305 L182.038415,252.771699 C181.965438,252.831476 181.891792,252.891526 181.817478,252.951848 L181.363576,253.317049 L181.363576,253.317049 L180.893635,253.688787 C180.813975,253.751289 180.733646,253.814062 180.652649,253.877108 L180.15865,254.258653 L180.15865,254.258653 L179.648612,254.646735 L179.648612,254.646735 L179.122535,255.041355 L179.122535,255.041355 L178.580419,255.442512 L178.580419,255.442512 L178.022264,255.850207 L178.022264,255.850207 L177.448072,256.264439 L177.448072,256.264439 L176.85784,256.685209 C176.758131,256.755882 176.657754,256.826828 176.556709,256.898045 L175.875778,257.322337 L175.875778,257.322337 L174.881165,257.947724 L174.881165,257.947724 L174.235945,258.357282 L174.235945,258.357282 L173.605009,258.760948 L173.605009,258.760948 L172.988358,259.158722 L172.988358,259.158722 L172.090165,259.744333 L172.090165,259.744333 L171.509225,260.127374 L171.509225,260.127374 L170.94257,260.504523 L170.94257,260.504523 L170.390199,260.875778 L170.390199,260.875778 L169.852112,261.241141 L169.852112,261.241141 L169.071766,261.778137 L169.071766,261.778137 L168.569391,262.128769 L168.569391,262.128769 L168.0813,262.473507 L168.0813,262.473507 L167.375947,262.979565 L167.375947,262.979565 L166.923568,263.309572 L166.923568,263.309572 L166.271781,263.793533 L166.271781,263.793533 L165.855113,264.108807 L165.855113,264.108807 L165.452729,264.418189 L165.452729,264.418189 L165.064629,264.721678 L165.064629,264.721678 L164.690814,265.019275 L164.690814,265.019275 L164.331283,265.310978 C164.272552,265.359104 164.214416,265.406985 164.156875,265.45462 L163.818771,265.737484 C163.76361,265.784137 163.709046,265.830545 163.655075,265.876706 L163.338398,266.150732 L163.338398,266.150732 L163.036005,266.418864 L163.036005,266.418864 L162.747897,266.681103 L162.747897,266.681103 L162.474073,266.937451 C162.429626,266.979684 162.385774,267.021672 162.342518,267.063414 L162.090121,267.310922 L162.090121,267.310922 L161.852008,267.552537 C161.813513,267.592315 161.775613,267.631848 161.738308,267.671134 L161.521622,267.90391 L161.521622,267.90391 L161.319221,268.130793 C161.286678,268.168116 161.25473,268.205193 161.223377,268.242025 C159.028677,270.820245 158.158482,274.065449 158.61279,277.977637 L159.131502,279.901101 L159.131502,279.901101 L159.765208,282.216498 L159.765208,282.216498 L160.137599,283.558305 L160.137599,283.558305 L160.504117,284.864539 L160.504117,284.864539 L160.983671,286.550846 L160.983671,286.550846 L161.336483,287.774075 L161.336483,287.774075 L161.683422,288.96173 L161.683422,288.96173 L162.13687,290.489934 L162.13687,290.489934 L162.470103,291.594585 L162.470103,291.594585 L162.797463,292.663662 L162.797463,292.663662 L163.118949,293.697165 L163.118949,293.697165 L163.434561,294.695096 L163.434561,294.695096 L163.744299,295.657452 L163.744299,295.657452 L164.048163,296.584236 L164.048163,296.584236 L164.346154,297.475445 L164.346154,297.475445 L164.63827,298.331082 L164.63827,298.331082 L164.924513,299.151145 L164.924513,299.151145 L165.204883,299.935635 L165.204883,299.935635 L165.388533,300.438864 L165.388533,300.438864 L165.569572,300.926284 L165.569572,300.926284 L165.836235,301.627769 L165.836235,301.627769 C166.051124,302.184857 166.278825,302.754899 166.51934,303.337896 L166.814108,304.04371 C166.864261,304.162382 166.914926,304.281573 166.966104,304.401281 L167.279322,305.12575 C167.385779,305.369313 167.494285,305.614948 167.604842,305.862656 L167.942661,306.611998 C168.057317,306.863852 168.174024,307.117778 168.292781,307.373777 L168.655201,308.147993 L168.655201,308.147993 L169.029921,308.934645 L169.029921,308.934645 L169.416943,309.733733 C169.482471,309.867951 169.548512,310.002687 169.615066,310.137942 L170.020538,310.955685 L170.020538,310.955685 L170.43831,311.785865 L170.43831,311.785865 L170.868383,312.628481 L170.868383,312.628481 L171.310756,313.483534 L171.310756,313.483534 L171.76543,314.351024 L171.76543,314.351024 L172.232404,315.23095 L172.232404,315.23095 L172.711679,316.123313 C172.792583,316.273076 172.873999,316.423358 172.955929,316.574158 L173.453654,317.485175 L173.453654,317.485175 L173.96368,318.408629 L173.96368,318.408629 L174.486006,319.34452 C174.574086,319.501538 174.662678,319.659074 174.751782,319.817129 L177.233698,299.909446 L177.382949,300.805767 L177.382949,300.805767 L177.535016,301.687377 C177.560595,301.833086 177.586291,301.978182 177.612105,302.122665 L177.768395,302.982208 L177.768395,302.982208 L177.9275,303.82704 L177.9275,303.82704 L178.089421,304.65716 L178.089421,304.65716 L178.254158,305.472568 L178.254158,305.472568 L178.421709,306.273265 L178.421709,306.273265 L178.592077,307.059251 C178.649335,307.318794 178.707063,307.575885 178.76526,307.830525 L178.941258,308.587087 C178.970826,308.711955 179.000511,308.83621 179.030313,308.959852 L179.210535,309.694347 L179.210535,309.694347 L179.393572,310.414131 L179.393572,310.414131 L179.579425,311.119203 C179.860316,312.165778 180.150709,313.162702 180.450604,314.109974 L180.651942,314.734133 C180.820897,315.248136 180.992785,315.746815 181.167605,316.230169 L181.378798,316.802838 C182.335499,319.346748 183.377721,321.443796 184.505463,323.093984 C187.554547,327.555601 191.829545,329.629719 197.330459,329.316337 C199.204965,329.192946 200.728573,328.780179 201.901281,328.078034 C203.07399,327.375889 204.26083,326.16581 205.461802,324.447797 L190.702941,295.079159 Z" id="Path-22" stroke="#E56161" stroke-width="1.728" fill="#E56161" fill-rule="nonzero"></path>
                <path d="M194.217531,282.193808 L195.512837,281.530776 L195.276768,281.895148 L195.276768,281.895148 L195.048111,282.23914 L195.048111,282.23914 L194.826867,282.562751 C194.790611,282.614989 194.754664,282.666376 194.719026,282.716915 L194.508901,283.009956 L194.508901,283.009956 L194.306189,283.282617 C194.206687,283.413852 194.109963,283.537444 194.01602,283.653394 L193.831841,283.875104 C193.470894,284.298144 193.154425,284.598902 192.882432,284.777377 C192.287447,285.167792 191.43742,285.472597 190.332348,285.69179 L190.107934,285.734487 L189.71055,285.714181 L189.71055,285.714181 L189.340476,285.691425 C189.281073,285.687428 189.222807,285.683329 189.16568,285.679128 L188.836571,285.652698 L188.836571,285.652698 L188.534771,285.623817 L188.534771,285.623817 L188.260283,285.592487 L188.260283,285.592487 L188.013103,285.558707 C187.779579,285.523703 187.58702,285.485024 187.435426,285.44267 C185.778517,284.979749 184.8315,283.904818 184.245242,283.032364 L184.120759,282.84215 L184.120759,282.84215 C183.654331,282.111195 183.310036,280.788906 183.219372,279.351431 C183.204034,279.108245 183.216293,278.809616 183.256149,278.455547 L183.291215,278.179599 C183.297922,278.131875 183.30506,278.083285 183.31263,278.033829 L183.36322,277.726696 C183.372513,277.673774 183.382239,277.619986 183.392396,277.565333 L183.458508,277.227014 C183.47039,277.168895 183.482702,277.109909 183.495446,277.050058 L183.577083,276.680554 C183.591552,276.617237 183.606451,276.553054 183.621782,276.488005 L183.718943,276.087315 C183.735998,276.0188 183.753485,275.94942 183.771403,275.879173 C184.174194,274.480047 184.777158,273.425473 185.580296,272.715451 C186.039231,272.309724 186.728722,271.870464 187.648768,271.397671 L188.004593,271.218801 C188.065698,271.188727 188.127704,271.158523 188.19061,271.128187 L188.578857,270.944603 L188.578857,270.944603 L188.988718,270.757874 C189.128941,270.695107 189.272765,270.631816 189.420193,270.568001 L189.873283,270.374985 C189.950599,270.342554 190.028816,270.309991 190.107934,270.277298 L189.754941,270.646307 L189.754941,270.646307 L189.419018,271.00284 L189.419018,271.00284 L189.100167,271.346901 L189.100167,271.346901 L188.798385,271.678486 L188.798385,271.678486 L188.513674,271.997598 L188.513674,271.997598 L188.246034,272.304235 C188.20285,272.354302 188.160376,272.403848 188.118615,272.452876 L187.876581,272.740802 L187.876581,272.740802 L187.651616,273.016253 L187.651616,273.016253 L187.443723,273.27923 C186.912101,273.963871 186.562565,274.515452 186.395115,274.933974 C185.718861,276.62419 186.044185,278.415127 186.365075,279.273703 L186.497551,279.605933 L186.497551,279.605933 L186.577052,279.796921 L186.577052,279.796921 L186.666425,280.001778 C186.682187,280.036925 186.698392,280.072535 186.715057,280.108554 L186.820694,280.329091 C187.303489,281.301978 188.119005,282.473124 189.551348,282.84215 C189.899399,282.93182 190.407495,282.936917 191.075635,282.85744 L191.37178,282.818201 C191.677723,282.773784 192.013063,282.713832 192.377798,282.638347 L192.752332,282.557684 L192.752332,282.557684 L193.146464,282.466664 L193.146464,282.466664 L193.560193,282.365289 L193.560193,282.365289 L193.993519,282.253558 C194.067373,282.234073 194.142044,282.214156 194.217531,282.193808 Z" id="Path-23" stroke="#E56161" stroke-width="1.08" fill="#E56161" fill-rule="nonzero"></path>
                <path d="M345.393234,389.516697 C343.180698,381.63773 342.557134,375.083021 343.522541,369.852572 C344.529807,364.395332 348.255393,358.135336 354.699297,351.072584 L354.998639,350.746042 C359.699336,345.642137 363.321271,339.619334 365.642331,333.046977 C367.357399,328.190555 368.863477,322.986208 370.160562,317.433936 C371.27999,312.642137 374.101196,313.416106 378.62418,319.755844 L378.966594,320.24176 C379.196998,320.572661 379.431656,320.917477 379.670568,321.276207 L380.032128,321.824738 L380.032128,321.824738 L380.40007,322.394141 C380.461925,322.490781 380.524046,322.58829 380.586433,322.686669 L380.963947,323.287379 L380.963947,323.287379 L381.347842,323.908961 L381.347842,323.908961 L381.73812,324.551414 C381.803698,324.660229 381.869542,324.769914 381.935651,324.880468 L382.335501,325.554228 C383.97366,328.335148 384.88148,331.494706 384.972444,334.731794 L385.015836,336.455589 L385.015836,336.455589 L385.041078,337.777904 L385.041078,337.777904 L385.056393,338.996419 L385.056393,338.996419 L385.061158,339.677703 L385.061158,339.677703 L385.061158,340.527954 L385.061158,340.527954 L385.055145,341.311773 L385.055145,341.311773 L385.049757,341.678769 L385.049757,341.678769 L385.038696,342.198125 L385.038696,342.198125 L385.01839,342.83247 L385.01839,342.83247 L384.99173,343.400383 L384.99173,343.400383 L384.976018,343.659428 L384.976018,343.659428 L384.958719,343.901864 L384.958719,343.901864 L384.92979,344.234378 L384.92979,344.234378 L384.90852,344.435294 L384.90852,344.435294 L384.873636,344.705528 L384.873636,344.705528 L384.848394,344.864924 L384.848394,344.864924 L384.821565,345.007712 L384.821565,345.007712 L384.807555,345.072878 C384.795953,345.124391 384.782561,345.177937 384.767379,345.233516 L384.716464,345.406352 C384.697703,345.465996 384.677151,345.527673 384.654809,345.591383 L384.582414,345.78861 L384.582414,345.78861 L384.499279,345.998034 C384.484528,346.033954 384.469329,346.070382 384.453683,346.107319 L384.354438,346.335037 L384.354438,346.335037 L384.244453,346.574951 L384.244453,346.574951 L384.123728,346.827061 L384.123728,346.827061 L383.992262,347.091368 L383.992262,347.091368 L383.774926,347.510696 L383.774926,347.510696 L383.533426,347.957465 L383.533426,347.957465 L383.26776,348.431675 L383.26776,348.431675 L382.977929,348.933328 L382.977929,348.933328 L382.663933,349.462421 L382.663933,349.462421 L382.325772,350.018956 L382.325772,350.018956 L381.963446,350.602933 L381.963446,350.602933 L381.70847,351.007496 L381.70847,351.007496 L381.305869,351.637209 L381.305869,351.637209 L380.731477,352.519512 L380.731477,352.519512 L380.114125,353.4506 L380.114125,353.4506 L379.208142,354.790957 L379.208142,354.790957 L378.535468,355.76782 C378.096361,356.405173 377.496664,356.911675 376.798777,357.234624 L366.271938,362.105938 C363.880325,363.212661 362.539522,365.816686 362.997747,368.426318 L363.026184,368.576869 C363.614912,371.487955 363.04679,374.516785 361.44507,377.006265 L352.677295,390.633618 C351.45672,392.530704 348.949071,393.066275 347.076305,391.829848 C346.258186,391.289715 345.660423,390.468171 345.393234,389.516697 Z" id="Path-24" stroke="#E56161" stroke-width="4.32" fill="#E56161" fill-rule="nonzero"></path>
                <path d="M373.184424,302.223112 L373.67496,298.950519 C373.718314,298.661284 373.802191,298.379797 373.924054,298.114567 L374.456025,296.956753 L374.456025,296.956753 C374.477405,297.24499 374.493859,297.460191 374.505389,297.602357 C375.064308,304.493875 376.500722,309.345658 378.814633,312.157707 C382.392901,316.506303 384.575677,317.584114 388.491932,318.355184 C390.965882,318.842279 396.206724,318.558348 397.985105,317.433936 C402.8139,314.380849 405.507331,312.15994 407.528937,307.369465 C408.351604,305.420044 410.076492,297.81723 408.802715,289.092618 C407.528937,280.368006 399.5843,273.820491 399.447392,273.683613 C396.731807,270.968622 393.699583,268.878606 390.350722,267.413564 L415.870808,270.568621 L416.554491,270.653146 C422.273361,270.890935 425.800541,272.517319 427.136029,275.532301 C428.464438,278.5313 428.408639,284.75055 426.968633,294.190052 L426.968633,294.190052 C426.957471,294.263222 426.946465,294.336417 426.935616,294.409635 C426.870187,294.851207 426.79258,295.150633 426.702795,295.307913 C425.049268,298.204485 423.790667,300.086014 422.926992,300.952498 C420.06207,303.826741 417.375451,304.395848 415.870808,306.350243 C413.936863,308.86226 411.919113,312.182793 409.817558,316.311844 C409.120881,317.680647 408.142334,318.882061 406.94801,319.834937 L404.175119,322.047254 C402.309689,323.535563 400.104873,324.525004 397.763328,324.924632 C395.442177,325.320779 393.674443,325.68103 392.460128,326.005384 C390.693488,326.477269 388.439192,327.316311 385.697239,328.522511 C378.169171,325.190613 373.22431,322.190261 370.862656,319.521452 C369.562451,318.052144 369.371943,316.646842 369.67108,314.339844 C369.680013,314.270955 369.169799,315.734998 369.182458,315.656361 C369.304466,314.929714 370.100456,312.292642 371.570917,307.745146 C371.652181,307.493831 371.723306,307.239268 371.784113,306.982088 L373.740324,298.708427 L373.740324,298.708427" id="Path-25" stroke="#E56161" stroke-width="1.728" fill="#E56161" fill-rule="nonzero"></path>
                <path d="M379.411784,275.717778 C389.753759,276.51312 395.655473,278.316257 397.116927,281.127189 C398.262037,283.329671 402.056052,290.341654 401.925785,296.044343 C401.806672,301.258794 397.844343,305.255627 397.116927,306.003554 C397.116927,306.003554 397.116927,306.003554 397.116927,306.003554 C394.747971,308.439306 391.214788,309.292535 388.015816,308.201382 C384.935638,307.150746 382.656192,305.849669 381.17748,304.29815 C379.517136,302.556055 377.887239,299.303969 376.287788,294.541892 C377.316957,284.780894 377.961741,277.181888 378.22214,271.744873 C378.482539,266.307858 377.226829,257.006664 374.45501,243.84129" id="Path-26" stroke="#E56161" stroke-width="2.592" fill="#E56161" fill-rule="nonzero"></path>
                <path d="M396.984808,278.87231 L382.566161,274.881764 L381.709674,274.897254 L381.709674,274.897254 L380.473175,274.913655 L380.473175,274.913655 L379.866827,274.916389 L379.866827,274.916389 L379.494749,274.913655 L379.494749,274.913655 L379.28428,274.908188 L379.28428,274.908188 L379.177291,274.902175 L379.177291,274.902175 L379.130186,274.897254 L379.130186,274.897254 L379.102456,274.891605 C379.093436,274.888598 379.091682,274.885318 379.097194,274.881764 C379.245909,274.785884 379.487139,274.699122 379.820881,274.621476 L379.950371,274.592787 C381.927023,274.17535 383.195351,272.213746 382.783263,270.211426 C382.746246,270.031564 382.696085,269.854824 382.63323,269.68266 L382.566161,269.512074 L383.135625,269.657775 L383.135625,269.657775 L383.687664,269.803636 C383.778219,269.82796 383.868048,269.85229 383.95715,269.876628 L384.483054,270.022732 C384.569253,270.047096 384.654726,270.071467 384.739472,270.095844 L385.23924,270.242191 L385.23924,270.242191 L385.721584,270.388699 L385.721584,270.388699 L386.186504,270.535368 L386.186504,270.535368 L386.634,270.6822 L386.634,270.6822 L387.064071,270.829192 L387.064071,270.829192 L387.476719,270.976346 L387.476719,270.976346 L387.871943,271.123662 C388.129617,271.221927 388.375676,271.320299 388.610118,271.418779 L388.953069,271.56658 C389.008776,271.591227 389.063756,271.61588 389.118011,271.640541 L389.434827,271.788584 L389.434827,271.788584 L389.734218,271.936789 C390.26713,272.208645 390.712197,272.481317 391.069416,272.754803 L391.319685,272.951595 L391.319685,272.951595 L391.580592,273.166907 C391.624963,273.204335 391.669776,273.242535 391.715034,273.281507 L391.991894,273.524596 L391.991894,273.524596 L392.279392,273.786204 C392.328195,273.831349 392.377441,273.877265 392.42713,273.923953 L392.730583,274.213339 C392.884968,274.362661 393.043343,274.518929 393.205706,274.68214 L393.535751,275.017824 L393.535751,275.017824 L393.876433,275.372025 L393.876433,275.372025 L394.227751,275.744745 L394.227751,275.744745 L394.589706,276.135984 L394.589706,276.135984 L394.962297,276.545741 C395.025283,276.615578 395.088711,276.686186 395.152582,276.757565 L395.541129,277.1951 C395.606773,277.269566 395.672861,277.344804 395.739391,277.420813 L396.143894,277.886126 L396.143894,277.886126 L396.559032,278.369958 L396.559032,278.369958 L396.984808,278.87231 L396.984808,278.87231 Z" id="Path-27" stroke="#E56161" stroke-width="1.08" fill="#E56161" fill-rule="nonzero"></path>
                <path d="M378.135967,252.504186 C372.790065,242.167021 369.466358,235.834939 368.164845,233.507941 C364.55878,227.060594 361.42134,224.213732 360.622517,223.093215 C359.723235,221.831783 358.598369,219.335696 357.247921,215.604956 C357.806658,204.444404 357.806658,195.9439 357.247921,190.103445 C356.855903,186.005696 355.937308,180.420146 354.492136,173.346794 L354.492136,173.346794 C353.142253,166.739834 350.329834,160.529335 346.26675,155.183163 C342.84369,150.679129 339.710608,146.879702 336.867503,143.784882 C332.41399,138.937076 326.648899,134.941762 319.572229,131.798939 L340.422003,125.379349 C341.907736,129.736075 343.418258,132.708589 344.95357,134.296891 C346.488881,135.885193 349.34511,137.430145 353.522255,138.931747 C360.054047,141.86254 364.340382,146.614436 366.381261,153.187435 C367.794843,157.740117 373.186086,169.116369 374.320854,181.457264 C374.656567,185.10823 373.760327,190.375044 371.632135,197.257708 C376.493701,201.837369 379.543789,205.710642 380.782397,208.877526 C382.021005,212.04441 382.857577,217.449191 383.292113,225.091867 C384.034334,226.880586 384.446805,227.86273 384.529528,228.038298 C387.359475,234.044488 385.870376,232.365154 388.897554,236.044404 C392.057465,239.884978 397.171504,244.702275 404.239672,250.496296 C414.567935,256.732185 421.062814,262.371274 423.72431,267.413564 C426.101908,271.918003 427.702342,276.569938 427.647101,277.345854 C427.642704,277.407619 427.472346,276.803101 427.136029,275.532301 L390.062719,267.465159 C389.90465,267.430763 389.746287,267.397764 389.58765,267.366163 L383.292113,266.112119 L383.292113,266.112119 L383.292113,264.114597 C383.292113,262.885298 383.110197,261.662944 382.75243,260.488282 C382.372512,259.240893 381.919752,257.990097 381.394148,256.735895 C380.59171,254.821107 379.794995,253.141406 379.004001,251.696792" id="Path-28" stroke="#E56161" stroke-width="1.728" fill="#E56161" fill-rule="nonzero"></path>
                <path d="M233.30206,119.418248 L233.562356,119.199848 L233.562356,119.199848 L234.083625,118.768373 L234.083625,118.768373 L234.605456,118.34403 L234.605456,118.34403 L235.127439,117.926858 L235.127439,117.926858 L235.649167,117.516895 C235.736078,117.44917 235.822961,117.381748 235.909807,117.314629 L236.430386,116.915551 L236.430386,116.915551 L236.949688,116.523777 L236.949688,116.523777 L237.467305,116.139347 L237.467305,116.139347 L237.982828,115.762297 L237.982828,115.762297 L238.495849,115.392667 L238.495849,115.392667 L239.005959,115.030493 L239.005959,115.030493 L239.51275,114.675815 L239.51275,114.675815 L240.015814,114.328671 L240.015814,114.328671 L240.514741,113.9891 L240.514741,113.9891 L241.254484,113.494023 L241.254484,113.494023 L241.741284,113.173548 L241.741284,113.173548 L242.460921,112.707296 L242.460921,112.707296 L243.166656,112.258511 L243.166656,112.258511 L243.857111,111.827322 L243.857111,111.827322 L244.751566,111.279997 L244.751566,111.279997 L245.401006,110.890367 L245.401006,110.890367 L246.23577,110.398922 L246.23577,110.398922 L246.836689,110.051552 L246.836689,110.051552 L247.601755,109.616923 L247.601755,109.616923 L248.66523,109.026736 L248.66523,109.026736 L248.995655,108.846629 L248.995655,108.846629 L249.765199,108.433083 L249.765199,108.433083 L250.574775,108.006758 L250.574775,108.006758 L252.346921,107.093251 C252.355938,107.088825 252.360658,107.088041 252.360658,107.089452 L252.348353,107.101551 L252.348353,107.101551 L252.249136,107.171486 L252.249136,107.171486 L251.31661,107.777132 L251.31661,107.777132 L249.934237,108.666215 L249.934237,108.666215 L248.676403,109.480074 L248.676403,109.480074 L247.08571,110.520341 L247.08571,110.520341 L245.769196,111.393302 L245.769196,111.393302 L244.61697,112.168538 L244.61697,112.168538 L243.849081,112.692266 L243.849081,112.692266 L242.901886,113.347814 L242.901886,113.347814 L242.162837,113.86819 L242.162837,113.86819 L241.624082,114.253533 L241.624082,114.253533 L241.101936,114.632809 L241.101936,114.632809 L240.599371,115.004365 L240.599371,115.004365 L240.119353,115.36655 L240.119353,115.36655 L239.664852,115.717713 L239.664852,115.717713 L239.377493,115.944882 L239.377493,115.944882 L238.972115,116.274003 L238.972115,116.274003 L238.720255,116.484949 L238.720255,116.484949 C236.007611,118.788889 233.44084,121.68822 231.019941,125.182941 C229.699533,127.379564 228.865361,129.187836 228.517424,130.607759 L228.406121,131.086963 L228.406121,131.086963 L228.29548,131.536642 L228.29548,131.536642 L228.120822,132.232486 L228.120822,132.232486 L228.058408,132.497513 L228.058408,132.497513 L228.002327,132.757738 C227.993584,132.800813 227.985164,132.843766 227.977093,132.886635 L227.933107,133.143168 C227.782379,134.125113 227.847521,135.104337 228.479435,136.555045 C228.96503,137.669847 229.694986,138.186803 230.423746,138.579225 L230.653555,138.69956 L230.653555,138.69956 L231.106059,138.928641 L231.106059,138.928641 L231.325318,139.044012 C231.901502,139.356821 232.403517,139.722643 232.684725,140.424123 C233.440471,142.30935 233.125805,144.723554 232.684725,146.047349 C232.300559,147.200332 231.756136,147.646914 230.647862,147.985595 L230.392134,148.059325 C230.303688,148.083472 230.211984,148.10727 230.116858,148.130962 C229.757236,148.220531 229.412577,148.232284 229.051988,148.207176 L228.833476,148.188015 L228.833476,148.188015 L228.609658,148.161973 L228.609658,148.161973 L228.379051,148.131016 L228.379051,148.131016 L227.891539,148.062218 L227.891539,148.062218 L227.631668,148.028308 L227.631668,148.028308 L227.359077,147.997347 C226.567315,147.915654 225.604523,147.893126 224.318927,148.130962 L224.081051,148.176554 C221.2232,148.743429 218.618967,150.220609 216.648352,152.392548 C215.758477,153.373334 214.866306,154.282722 213.971836,155.120712 C212.519273,156.481555 211.288008,157.182119 210.278042,157.222402 L210.170678,157.224192 C208.642141,157.224192 207.62834,156.980434 207.129274,156.492918 C206.127306,155.514285 206.155708,153.987786 206.471902,152.527592 L206.536496,152.245966 C206.547793,152.199222 206.559341,152.152587 206.571113,152.106084 L206.644244,151.828797 C206.656816,151.7829 206.669562,151.737174 206.682458,151.691641 L206.761435,151.420921 L206.761435,151.420921 L206.842813,151.155815 L206.842813,151.155815 L206.966765,150.770846 L206.966765,150.770846 L207.129274,150.286441 L207.129274,150.286441 C207.258866,149.904896 207.43183,149.488092 207.648165,149.036026 L207.798814,148.729426 C207.824993,148.677455 207.851707,148.625049 207.878957,148.572208 L208.048882,148.249936 L208.048882,148.249936 L208.231658,147.917217 L208.231658,147.917217 L208.427284,147.57405 C208.52831,147.399855 208.634155,147.221742 208.744819,147.039711 L208.972573,146.670425 C209.050632,146.545589 209.130834,146.419011 209.213177,146.290692 L209.466631,145.900512 C209.509945,145.834611 209.553794,145.768275 209.598178,145.701504 L209.870909,145.295652 L209.870909,145.295652 L210.156491,144.879352 L210.156491,144.879352 L210.454924,144.452606 L210.454924,144.452606 L210.766207,144.015412 L210.766207,144.015412 L211.090342,143.56777 L211.090342,143.56777 L211.427326,143.10968 L211.427326,143.10968 L211.777162,142.641144 L211.777162,142.641144 L212.139849,142.16216 L212.139849,142.16216 L212.515386,141.672728 L212.515386,141.672728 L212.903774,141.172849 L212.903774,141.172849 L213.305013,140.662521 L213.305013,140.662521 L213.719103,140.141747 L213.719103,140.141747 L214.146043,139.610526 L214.146043,139.610526 L214.585834,139.068857 L214.585834,139.068857 L215.038476,138.516739 L215.038476,138.516739 C221.43291,130.657425 227.520771,124.291261 233.30206,119.418248 Z" id="Path-29" stroke="#E56161" stroke-width="1.08" fill="#E56161" fill-rule="nonzero"></path>
                <path d="M315.870448,205.172171 C316.374922,205.816398 316.801875,206.1189 317.151309,206.079677 C319.048703,205.866697 321.148145,204.196309 322.813282,203.014804 C323.076444,202.828077 326.316626,200.801451 326.648205,200.589392 C327.420519,200.095467 329.004346,198.838672 330.993173,197.791644 C333.031965,196.718313 334.780445,194.464155 342.812738,195.124547 C348.167599,195.564808 352.336588,197.120526 355.319705,199.791701 C353.67129,197.19198 351.972301,195.336125 350.222738,194.224136 C348.473175,193.112147 345.507516,192.003241 341.32576,190.897418 C336.090781,190.579716 332.006528,190.969894 329.072999,192.067952 C326.139471,193.16601 322.303185,195.740593 317.56414,199.791701 L314.354339,203.014804 L315.870448,205.172171 Z" id="Path-30" stroke="#E56161" stroke-width="1.08" fill="#E56161" fill-rule="nonzero"></path>
                <path d="M282.707882,207.121711 L274.290809,205.137683 C269.897715,204.55779 266.774412,204.226178 264.920901,204.142846 C260.766452,203.956067 256.897432,203.956067 255.350122,204.142846 C252.135287,204.530915 248.353429,205.52387 244.004548,207.121711 C238.907803,209.535263 234.946161,212.01503 232.119623,214.561011 C229.293084,217.106992 225.951101,221.205906 222.093672,226.857751 C227.056293,222.735509 231.336172,219.424965 234.933311,216.926118 C237.486454,215.15251 240.213199,213.263858 240.63274,213.004436 C241.09984,212.715606 241.862084,211.79485 245.130811,211.248248 C251.335452,210.210699 254.507841,210.669977 260.931658,210.669977 C265.214203,210.669977 271.506917,211.108049 279.8098,211.984194 C280.809875,211.711276 281.489677,211.273203 281.849205,210.669977 C282.208734,210.06675 282.494959,208.883995 282.707882,207.121711 Z" id="Path-31" stroke="#E56161" stroke-width="1.08" fill="#E56161" fill-rule="nonzero"></path>
                <path d="M326.172927,225.391268 L326.290815,226.172444 L326.290815,226.172444 L326.117912,225.916002 L326.117912,225.916002 L325.892821,225.57275 L325.892821,225.57275 L325.765602,225.371522 L325.765602,225.371522 L325.656657,225.19238 L325.656657,225.19238 L325.565984,225.035324 L325.565984,225.035324 L325.493585,224.900353 C325.451409,224.817734 325.421417,224.74984 325.403606,224.696669 C325.203586,224.099536 325.171755,223.472147 325.175529,222.90293 L325.181006,222.569088 L325.181006,222.569088 L325.188663,222.253452 C325.190872,222.151746 325.192384,222.053782 325.192138,221.960267 L325.190318,221.823419 C325.164592,220.81557 325.434468,219.795298 325.999948,218.762601 C325.824861,220.112887 325.763121,221.257945 325.81473,222.197776 L325.834587,222.507365 L325.834587,222.507365 L325.861563,222.842553 L325.861563,222.842553 L325.895659,223.20334 L325.895659,223.20334 L325.936874,223.589727 L325.936874,223.589727 L325.985208,224.001713 L325.985208,224.001713 L326.040662,224.439299 L326.040662,224.439299 L326.103235,224.902484 L326.103235,224.902484 L326.172927,225.391268 L326.172927,225.391268 Z" id="Path-32" stroke="#E56161" stroke-width="1.08" fill="#E56161" fill-rule="nonzero"></path>
                <path d="M273.906158,233.728877 L274.045759,234.506373 L274.045759,234.506373 L274.163537,234.067224 L274.163537,234.067224 L274.229331,233.808094 L274.229331,233.808094 L274.284945,233.575873 L274.284945,233.575873 L274.349281,233.277996 L274.349281,233.277996 L274.379446,233.113047 C274.400343,232.986802 274.410636,232.888587 274.410338,232.818402 C274.407358,232.148426 274.213888,231.508772 274.014369,230.947282 L273.783849,230.314074 C273.766365,230.264943 273.749558,230.216786 273.733612,230.169649 L273.688546,230.03135 C273.388954,229.069925 272.805871,228.194243 271.939296,227.404302 C272.538818,228.623279 272.96521,229.685591 273.21847,230.591239 L273.299195,230.89051 L273.299195,230.89051 L273.381416,231.216333 L273.381416,231.216333 L273.465133,231.568709 L273.465133,231.568709 L273.550346,231.947637 L273.550346,231.947637 L273.637055,232.353119 L273.637055,232.353119 L273.769924,233.011126 L273.769924,233.011126 L273.906158,233.728877 L273.906158,233.728877 Z" id="Path-32-Copy" stroke="#E56161" stroke-width="1.08" fill="#E56161" fill-rule="nonzero"></path>
                <path d="M332.492757,222.510156 L327.164282,227.538862 C326.20844,226.185903 325.834714,225.440222 326.043106,225.30182 C326.172136,225.216125 325.967687,225.201621 326.415509,225.30182 C326.46453,225.312788 327.249105,224.425582 327.286806,224.379162 C327.930376,223.586738 328.359394,222.91576 330.185607,221.245119 C330.217042,221.216362 330.407773,221.016237 330.757801,220.644745" id="Path-33" stroke="#E56161" stroke-width="1.08" fill="#E56161" fill-rule="nonzero"></path>
                <path d="M272.257724,232.538998 C271.810999,233.262226 271.891582,233.870348 272.499472,234.363365 C273.107362,234.856381 273.499907,235.144297 273.677107,235.227113 L273.276819,232.151068" id="Path-2" stroke="#E56161" stroke-width="1.08" fill="#E56161" fill-rule="nonzero"></path>
                <path d="M326.820438,227.835199 L326.372185,228.169936 L326.06922,228.380023 C325.705335,227.177388 325.478096,226.284004 325.387503,225.699869 C325.29691,225.115734 325.249307,224.493312 325.244693,223.832602 L326.820438,227.835199 Z" id="Path-3" stroke="#E56161" stroke-width="1.08" fill="#E56161" fill-rule="nonzero"></path>
                <path d="M243.091339,235.080267 L237.090548,240.025215 C237.968886,238.209876 238.680324,236.901168 239.224861,236.099091 C239.769398,235.297014 240.590794,234.454967 241.68905,233.572951 L243.091339,235.080267 Z" id="Path-34" stroke="#E56161" stroke-width="1.08" fill="#E56161" fill-rule="nonzero"></path>
                <path d="M382.35242,270.093083 C382.09781,271.258394 381.804589,272.145137 381.472758,272.753316 C381.140927,273.361494 380.348027,274.070977 379.094058,274.881764 L384.540313,274.192192 L382.35242,270.093083 Z" id="Path-35" stroke="#E56161" stroke-width="1.08" fill="#E56161" fill-rule="nonzero"></path>
                <path d="M328.479657,264.187982 L328.100044,265.699819 C326.728751,269.132049 323.886147,271.52254 319.572229,272.871292 C315.258311,274.220044 311.879643,272.736129 309.436223,268.419548 C310.334079,268.847686 310.995277,269.15576 311.419818,269.343771 C315.448221,271.127776 318.50073,271.869025 320.577348,271.567519 C324.184682,271.043766 326.801717,267.043029 328.100044,264.951704 C329.398369,262.86038 329.557837,257.974577 328.100044,253.168373 C327.541956,251.328412 326.170664,248.599858 323.986168,244.98271 C319.416673,239.182439 316.35566,235.19922 314.80313,233.033053 C311.781251,228.816779 309.992283,225.836362 309.436223,224.091803 C308.451638,221.002809 309.128652,216.592025 311.467265,210.859451 C308.353817,214.761425 306.979635,218.193216 307.344719,221.154826 C307.709803,224.116435 310.671982,228.72371 316.231254,234.976649 C313.261437,230.951368 311.138342,227.876091 309.861972,225.750819 C308.585601,223.625547 307.941714,222.093549 307.930309,221.154826 L309.436223,216.104929" id="Path-5" stroke="#E56161" stroke-width="1.296"></path>
                <path d="M311.715593,269.99615 C313.332837,271.291975 314.612654,272.120119 315.555043,272.480582 C316.497432,272.841046 317.3827,272.841046 318.210848,272.480582" id="Path-6" stroke="#E56161" stroke-width="1.296"></path>
                <path d="M335.816969,260.947499 C336.489741,262.28058 336.826128,263.551471 336.826128,264.760175 C336.826128,265.968878 336.295215,267.553026 335.233391,269.512618 C335.68323,269.362686 336.003819,269.159559 336.195157,268.903235 C337.831921,266.710561 338.366282,264.912402 337.798238,263.508757 C337.130586,261.858983 334.160176,259.092768 328.887007,255.210112 L328.537649,254.707493" id="Path-7" stroke="#E56161" stroke-width="1.296"></path>
                <path d="M292.592411,277.350148 C289.975786,274.762659 288.8392,272.405043 289.182655,270.277298 C289.526109,268.149553 291.653563,265.427139 295.565015,262.110055" id="Path-8" stroke="#E56161" stroke-width="1.728"></path>
                <path d="M318.000319,272.217758 C319.537465,272.012729 320.510904,271.807482 320.920636,271.602018 C324.48045,269.816911 325.805216,267.789737 326.820438,266.151308 C328.010937,264.230005 328.58334,260.4154 328.537649,254.707493" id="Path-9" stroke="#E56161" stroke-width="1.08"></path>
                <path d="M293.053326,276.722535 L295.565015,278.55126 C295.307849,278.786795 295.083657,278.928048 294.89244,278.975018 C294.612546,279.04377 294.005955,278.987871 293.855149,278.975018 C293.193055,278.918588 291.535325,277.550603 291.211997,277.208456 C291.081915,277.070802 290.725397,276.568846 290.142445,275.70259" id="Path-36" stroke="#E56161" stroke-width="1.08" fill="#E56161" fill-rule="nonzero"></path>
                <g id="Path-37"></g>
                <path d="M295.104366,261.654653 C294.994864,261.604404 295.016027,261.541233 295.167854,261.465141 C295.239826,261.42907 295.560976,261.27079 295.447064,261.316573 C294.605891,261.654653 296.102052,260.895565 296.691437,260.708247 C296.93636,260.630406 297.361115,260.563128 297.965706,260.506413 C297.128123,261.42224 296.57902,262.05258 296.318396,262.397432 C296.057771,262.742285 295.95533,262.788108 296.011072,262.534901 L295.104366,261.654653 Z" id="Path-38" stroke="#E36060" stroke-width="1.08" fill="#E56161" fill-rule="nonzero"></path>
                <path d="M310.058606,226.857751 C319.19338,237.618332 324.780657,246.395445 326.820438,253.189092 C328.860219,259.982739 327.541905,265.423733 322.865494,269.512074 C321.1118,270.651903 319.791352,271.272391 318.90415,271.37354 C318.016948,271.474689 316.703305,271.261589 314.96322,270.734239" id="Path-39" stroke="#E36060" stroke-width="1.08"></path>
                <path d="M314.96322,270.734239 C317.405658,270.83977 319.277033,270.626051 320.577348,270.093083 C321.877662,269.560116 323.680931,268.267686 325.987154,266.215794" id="Path-40" stroke="#E36060" stroke-width="1.296"></path>
                <path d="M300.538919,272.75093 C300.227502,273.15227 299.814078,273.35294 299.298646,273.35294 C298.525498,273.35294 298.525498,273.35294 297.965706,272.75093 C297.405913,272.14892 298.252759,271.309276 299.298646,270.760402 C299.995904,270.394486 300.875054,270.139736 301.936097,269.99615 C303.169184,269.70446 304.053901,269.70446 304.590246,269.99615 C305.394765,270.433684 306.373019,271.76012 305.907213,272.217758 C305.596676,272.52285 304.403934,272.52285 302.328988,272.217758 C301.951141,272.14954 301.647699,272.14954 301.418661,272.217758 C301.189623,272.285977 300.896376,272.463701 300.538919,272.75093 Z" id="Path-41" stroke="#E36060" stroke-width="1.08" fill="#E56161" fill-rule="nonzero"></path>
                <path d="M328.147744,268.833409 C327.918293,269.121048 327.613683,269.264866 327.233914,269.264866 C326.664262,269.264866 326.664262,269.264866 326.251808,268.833409 C325.839354,268.401952 326.463308,267.800185 327.233914,267.40681 C327.747652,267.144561 328.395408,266.961982 329.177181,266.859075 C330.085716,266.650023 330.737572,266.650023 331.13275,266.859075 C331.725517,267.172653 332.446292,268.123302 332.103087,268.451289 C331.874284,268.669946 330.995476,268.669946 329.466661,268.451289 C329.188265,268.402397 328.96469,268.402397 328.795935,268.451289 C328.627181,268.500181 328.411117,268.627554 328.147744,268.833409 Z" id="Path-41-Copy" stroke="#E36060" stroke-width="1.08" fill="#E56161" fill-rule="nonzero"></path>
                <path d="M328.105946,253.439226 C330.422067,255.021312 332.145987,256.340803 333.277706,257.397696 C334.409425,258.45459 335.636209,259.855711 336.958057,261.601059" id="Line-2" stroke="#E46060" stroke-width="1.08" stroke-linecap="square"></path>
                <path d="M338.368731,263.462626 C338.325735,262.855998 338.028941,262.179136 337.478347,261.432041 C336.927754,260.684946 336.04229,259.743298 334.821956,258.607098 L338.368731,263.462626 Z" id="Path-42" stroke="#E46060" stroke-width="1.08"></path>
                <path d="M335.944744,262.666808 C335.648092,261.798079 335.273829,261.12146 334.821956,260.636953 C334.370083,260.152445 333.606765,259.475827 332.532002,258.607098" id="Path-43" stroke="#E46060" stroke-width="1.08"></path>
                <path d="M333.723559,257.520143 C335.078715,258.443484 336.035977,259.224037 336.595344,259.861803 C337.15471,260.499569 337.745839,261.56031 338.368731,263.044027" id="Path-44" stroke="#E46060" stroke-width="1.08"></path>
                <path d="M299.649726,315.38559 C299.53956,315.361871 299.241863,315.330226 299.143014,315.213365 C299.015471,315.062581 298.909749,314.649074 298.825846,313.972844 L300.059419,314.437608 C300.109671,315.13922 299.973106,315.455213 299.649726,315.38559 Z" id="Path-45" stroke="#E46060" stroke-width="1.08" fill="#E56161" fill-rule="nonzero"></path>
                <path d="M344.079569,303.516648 C344.287629,303.256388 344.208496,302.715345 343.842171,301.893522 L343.172241,303.041105 C343.569066,303.618395 343.871508,303.77691 344.079569,303.516648 Z" id="Path-45-Copy" stroke="#E46060" stroke-width="1.08" fill="#E56161" fill-rule="nonzero"></path>
                <path d="M300.336184,315.069355 C301.391864,315.429722 302.07907,315.659922 302.397801,315.759954 C314.938322,319.695757 322.645937,320.035876 327.749694,318.697238 C333.048028,317.307566 337.442533,313.797934 340.933208,308.168341" id="Path-46" stroke="#E46060" stroke-width="1.296"></path>
                <path d="M299.832772,314.899434 C299.953379,315.121911 300.077556,315.367388 300.184579,315.545266 C301.100833,317.068134 301.668654,317.038815 304.686373,317.765922 C306.933175,318.307279 309.595209,318.853741 312.672476,319.405306 C314.258772,319.644204 315.446086,319.831915 316.234418,319.968439 C317.02275,320.104964 318.124604,320.251165 319.53998,320.407042 C322.674859,320.610003 324.520546,320.711484 325.07704,320.711484 C329.792274,320.711484 333.491235,318.987094 335.501247,317.433936 C339.031365,314.706177 345.220293,306.001102 343.370218,303.247661" id="Path-47" stroke="#E46060" stroke-width="1.728"></path>
                <path d="M293.053326,301.755026 C292.72003,301.794011 292.174249,301.407832 291.415982,300.596489 L293.053326,300.740263 C293.386622,301.377787 293.386622,301.716042 293.053326,301.755026 Z" id="Path-48" stroke="#E46060" stroke-width="1.08" fill="#E56161" fill-rule="nonzero"></path>
                <path d="M295.795189,300.740263 C298.523179,301.411647 300.477758,301.482392 301.658924,300.952498 C302.840092,300.422604 304.325664,299.681443 306.115641,298.729015 L305.043785,299.670061 C303.624051,300.303559 302.629377,300.660293 302.059765,300.740263 C301.778928,300.779691 299.690736,300.779691 295.795189,300.740263 Z" id="Path-49" stroke="#E46060" stroke-width="1.296"></path>
                <path d="M301.169476,300.367086 C302.579737,299.858547 303.651293,299.409914 304.384142,299.021186 C305.116992,298.632458 306.188547,297.944314 307.598809,296.956753" id="Path-50" stroke="#E46060" stroke-width="1.08"></path>
                <path d="M347.740343,290.297097 L348.880595,289.404181 C348.721497,290.394993 348.567132,290.948987 348.417499,291.066163 C348.267865,291.183339 348.042147,290.926983 347.740343,290.297097 Z" id="Path-51" stroke="#E46060" stroke-width="1.08" fill="#E56161" fill-rule="nonzero"></path>
                <path d="M239.967348,141.156648 C238.25022,142.932634 239.044751,142.152457 242.350938,138.816118 C247.310221,133.81161 247.074504,131.727421 249.652655,128.622558 C253.838311,123.581778 253.688218,119.394694 259.699351,115.038087 C265.710485,110.681481 268.95808,109.997151 275.351512,109.997151 C279.613799,109.997151 282.864111,108.812334 285.102446,106.4427" id="Path-52" stroke="#E46060" stroke-width="2.16"></path>
                <path d="M284.446993,105.650827 L287.195251,102.481475 C286.676406,105.147466 286.256214,106.665865 285.934674,107.036672 C285.613135,107.407478 285.117241,106.94553 284.446993,105.650827 Z" id="Path-53" stroke="#E46060" stroke-width="1.08" fill="#E56161" fill-rule="nonzero"></path>
                <path d="M237.403398,141.815966 C236.385525,143.612212 240.272396,144.065424 241.963907,142.794901 C243.091582,141.947885 244.804714,139.120307 247.103304,134.312166 L252.842817,122.132315 C248.261613,128.857012 245.118727,133.233091 243.414159,135.260552 C239.959119,139.370072 237.79338,141.127763 237.403398,141.815966 Z" id="Path-54" stroke="#E46060" stroke-width="1.08" fill="#E56161" fill-rule="nonzero"></path>
                <path d="M273.058829,125.26969 C273.409372,124.549006 275.165554,123.304776 278.327375,121.537002 C283.070106,118.885341 286.950298,117.381554 289.147476,115.750611 C292.143626,113.526597 293.893043,111.351657 294.395725,109.22579 C291.973581,111.783194 290.076657,113.425789 288.704953,114.153576 C285.522999,115.841829 281.69274,116.060231 279.819034,116.310659 C275.191075,116.929202 261.110694,126.51141 257.934129,130.163017 C255.81642,132.597421 250.786383,136.314279 242.844019,141.313591 C245.678003,140.01895 248.047372,139.277335 249.952125,139.088747 C252.809255,138.805864 254.653356,140.654568 258.36579,139.776789 C262.078224,138.899011 261.480635,138.566365 264.415041,135.669094 C266.371311,133.73758 269.252574,130.271112 273.058829,125.26969 Z" id="Path-55" stroke="#E46060" stroke-width="1.08" fill="#E56161" fill-rule="nonzero"></path>
                <path d="M276.873736,131.164942 C280.409794,131.758084 283.482849,131.439064 286.092901,130.207883 C290.007979,128.36111 292.506145,126.656816 297.032959,122.132315 C301.559773,117.607813 303.271742,118.258292 305.175091,117.749942 C306.512117,117.392846 308.526188,116.858177 311.217305,116.145936" id="Path-56" stroke="#E46060" stroke-width="2.16"></path>
                <path d="M276.873736,132.191645 C276.226985,132.191645 275.251704,131.623863 273.947894,130.488299 C275.720311,130.221707 276.695592,130.082712 276.873736,130.071315 C277.051879,130.059917 277.205031,130.126715 277.333193,130.271708" id="Path-57" stroke="#E46060" stroke-width="1.08" fill="#E56161" fill-rule="nonzero"></path>
                <path d="M311.551478,117.13533 C312.60077,116.954333 314.017786,115.949604 315.802526,114.121144 L311.048621,115.125798 C310.334566,116.646483 310.502185,117.316327 311.551478,117.13533 Z" id="Path-58" stroke="#E56161" stroke-width="1.08" fill="#E56161" fill-rule="nonzero"></path>
                <path d="M287.195251,134.512785 C287.590754,134.474017 287.885993,134.444806 288.080965,134.42515 C288.334194,134.399621 288.585339,134.373889 288.834401,134.347952 C296.324437,133.56795 301.930292,132.603371 305.651966,131.454214 C311.634499,129.606962 312.538891,125.070709 318.726392,123.800075 C322.851392,122.952985 330.323469,123.107093 341.142624,124.262398 L316.877157,131.454214 C314.19243,131.056682 312.105009,130.948896 310.614894,131.130857 C309.124778,131.312818 307.100848,131.877515 304.543102,132.824946 L301.489402,133.941093 C299.397705,134.345705 297.819053,134.53627 296.753446,134.512785 C294.102546,134.454362 290.916481,134.42515 287.195251,134.42515" id="Path-59" stroke="#E56161" stroke-width="1.08" fill="#E56161" fill-rule="nonzero"></path>
                <path d="M344.156434,123.262548 C341.707608,123.38072 339.297339,123.38072 336.925627,123.262548 C330.017437,122.918341 322.445342,121.652609 317.299957,122.727749 C314.124812,123.391203 311.154637,127.948493 307.20493,130.070069 C304.571792,131.484453 302.552431,132.377137 301.146848,132.74812" id="Path-60" stroke="#E56161" stroke-width="2.16"></path>
                <path d="M342.23671,124.093544 C341.895557,123.236341 341.530862,123.664942 341.142624,125.379349 L347.739067,123.800075 L344.954176,122.22163 C344.566423,122.22163 344.327838,122.22163 344.238419,122.22163 C344.149001,122.22163 344.055742,122.248879 343.958644,122.303377" id="Path-61" stroke="#E56161" stroke-width="1.08" fill="#E56161" fill-rule="nonzero"></path>
                <path d="M302.719651,131.593508 C303.91975,131.685561 303.304657,132.00826 300.87437,132.561606 C298.444083,133.114952 294.782541,133.765989 289.889745,134.514717 L287.195251,134.514717 L286.101436,134.076501 C287.734617,134.242443 290.266267,134.069467 293.696389,133.557575 C297.126509,133.045683 299.117616,132.59718 299.669708,132.212064 C300.306197,131.972366 300.707751,131.822329 300.87437,131.761953 C301.040989,131.701577 301.656083,131.548461 302.719651,131.302607" id="Path-62" stroke="#E56161" stroke-width="1.08" fill="#E56161" fill-rule="nonzero"></path>
                <path d="M199.167609,141.313591 C198.319916,133.079175 198.319916,126.685417 199.167609,122.132315 C200.439149,115.302662 207.475053,102.481475 219.138933,98.924892 C230.802813,95.3683094 233.843658,85.8135973 242.844019,80.7973349 C251.844381,75.7810725 256.677818,73.7030549 263.658363,74.1124297 C270.638909,74.521804 271.075776,80.8162052 287.195251,83.4753854 C295.165697,84.790245 303.525483,90.2652242 315.802526,96.5998785 C318.653015,98.0706614 324.183088,100.031193 332.392744,102.481475 C340.595541,103.021362 346.520753,103.801201 350.168382,104.82099 C355.639824,106.350675 364.932833,112.551253 371.250852,122.132315 C377.568871,131.713376 384.557431,146.216832 391.285292,161.952084 C398.013152,177.687335 396.881941,184.228111 401.929059,193.883105 C405.293805,200.319767 410.055658,205.359061 416.214619,209.000985 C426.233986,213.889154 434.260052,221.187279 440.292817,230.895359 C446.325582,240.603439 450.117952,250.399014 451.669927,260.282084 C453.901766,270.174344 456.217729,277.503049 458.617817,282.2682 C462.21795,289.415927 464.977938,287.906685 466.918416,294.541892 C468.858893,301.177098 462.646068,304.635631 460.597799,313.786824 C459.321785,319.487757 459.085648,329.594676 463.653904,331.59567" id="Path-63" stroke="#E56161" stroke-width="3.888"></path>
                <path d="M104.153487,354.370598 C107.314999,352.369736 107.376715,352.069306 108.804112,350.36088 C113.731023,344.463947 112.928637,336.237372 111.627616,327.364028 C110.797791,321.704388 101.344193,319.976113 106.070992,306.188048 C109.525967,296.109891 112.579458,297.125204 114.338513,291.197389 C121.64947,266.560294 112.069657,286.39022 121.930195,260.282084 C124.261069,254.110537 128.587225,249.337877 131.027313,243.78359 C135.46893,233.673291 130.911058,240.32056 135.845805,228.168786 C137.447173,224.22543 140.685516,222.333418 142.355802,218.812589 C144.116931,215.100269 143.121396,216.026442 145.498116,207.757733 C147.874837,199.489023 142.037751,204.006114 150.266835,191.289777 C150.624195,190.737551 152.95419,187.802609 153.295074,187.234374 C158.187307,179.079294 154.62713,171.039645 158.495918,159.00322 C162.364706,146.966796 163.535985,145.180494 168.225519,140.783347 C172.915052,136.3862 175.247178,134.943018 183.212978,135.827238 C191.178779,136.711458 202.186612,151.871322 198.53184,133.083803" id="Path-64" stroke="#E56161" stroke-width="3.888"></path>
                <path d="M242.844019,141.313591 C245.416373,138.755619 247.261127,136.684793 248.378282,135.101112 C249.495436,133.517431 250.524942,131.22033 251.4668,128.209807 L242.844019,141.313591 Z" id="Path-65" stroke="#E56161" stroke-width="1.08" fill="#E56161" fill-rule="nonzero"></path>
            </g>
        </g>
    </g>
</svg>