<?xml version="1.0" encoding="UTF-8"?>
<svg width="512px" height="427px" viewBox="0 0 512 427" version="1.1" xmlns="http://www.w3.org/2000/svg" xmlns:xlink="http://www.w3.org/1999/xlink">
    <title>Path</title>
    <g id="Page-1" stroke="none" stroke-width="1" fill="none" fill-rule="evenodd">
        <g id="Artboard" transform="translate(-337.000000, -161.000000)" fill="#E56161" fill-rule="nonzero">
            <g id="red-arrow-right" transform="translate(337.000000, 161.000000)">
                <path d="M503.816392,193.440769 L318.915131,8.53534524 C313.636995,3.25720929 306.602255,0.360062113 299.101308,0.360062113 C291.592036,0.360062113 284.561459,3.26137186 279.283323,8.53534524 L262.495687,25.3271437 C257.221714,30.5969545 254.316241,37.6358566 254.316241,45.1409663 C254.316241,52.6419135 257.221714,59.918082 262.495687,65.1878928 L370.364469,173.293941 L27.6602629,173.293941 C12.2088113,173.293941 0,185.390363 0,200.845977 L0,224.585101 C0,240.040715 12.2088113,253.356769 27.6602629,253.356769 L371.588264,253.356769 L262.49985,362.06639 C257.225876,367.344526 254.320404,374.19195 254.320404,381.697059 C254.320404,389.193844 257.225876,396.14117 262.49985,401.415143 L279.287485,418.152828 C284.565621,423.430964 291.596198,426.307298 299.105471,426.307298 C306.606418,426.307298 313.641157,423.393501 318.919293,418.115365 L503.820554,233.214104 C509.111178,227.919318 512.020813,220.851278 512.000111,213.337843 C512.01665,205.799433 509.111178,198.72723 503.816392,193.440769 Z" id="Path"></path>
            </g>
        </g>
    </g>
</svg>